<?xml version="1.0" encoding="UTF-8" standalone="no" ?>
<!DOCTYPE svg PUBLIC "-//W3C//DTD SVG 1.1//EN" "http://www.w3.org/Graphics/SVG/1.1/DTD/svg11.dtd">
<svg xmlns="http://www.w3.org/2000/svg" xmlns:xlink="http://www.w3.org/1999/xlink" version="1.1" width="1080" height="1080" viewBox="0 0 1080 1080" xml:space="preserve">
<desc>Created with Fabric.js 5.2.4</desc>
<defs>
</defs>
<g transform="matrix(1 0 0 1 540 540)" id="44a8c3ca-7760-4b2d-8798-b2110cb4ec06"  >
</g>
<g transform="matrix(1 0 0 1 540 540)" id="b02835aa-8327-428c-a9b2-c9f07a8ae217"  >
<rect style="stroke: none; stroke-width: 1; stroke-dasharray: none; stroke-linecap: butt; stroke-dashoffset: 0; stroke-linejoin: miter; stroke-miterlimit: 4; fill: rgb(22,7,7); fill-rule: nonzero; opacity: 1; visibility: hidden;" vector-effect="non-scaling-stroke"  x="-540" y="-540" rx="0" ry="0" width="1080" height="1080" />
</g>
<g transform="matrix(1 0 0 1 540 521.96)"  >
<g style="" vector-effect="non-scaling-stroke"   >
		<g transform="matrix(1.33 0 0 1.33 -2.47 -1.86)"  >
<path style="stroke: rgb(254,254,254); stroke-width: 1; stroke-dasharray: none; stroke-linecap: butt; stroke-dashoffset: 0; stroke-linejoin: miter; stroke-miterlimit: 4; fill: rgb(254,254,254); fill-rule: nonzero; opacity: 1;" vector-effect="non-scaling-stroke"  transform=" translate(-746.5, -559.07)" d="M 13.285 3.908 C 10.861 5.664 8.226 8.912 6.635 12.105 L 4 17.393 L 4 556 L 4 1094.607 L 6.588 1099.8 C 8.011 1102.656 10.261 1105.847 11.588 1106.89 C 13.438 1108.346 14 1109.745 14 1112.894 C 14 1117.687 16.658 1118.819 17.184 1114.25 C 17.397 1112.398 17.99 1111.62 19 1111.869 C 19.825 1112.072 22.413 1112.468 24.75 1112.749 C 28.053 1113.146 29 1113.677 29 1115.13 C 29 1116.159 29.45 1117 30 1117 C 30.55 1117 31 1116.1 31 1115 C 31 1112.275 34.998 1112.275 35.71 1115 C 35.998 1116.1 36.814 1117 37.523 1117 C 38.32 1117 38.613 1116.237 38.29 1115 C 37.817 1113.192 38.259 1113 42.883 1113 C 47.333 1113 48 1113.261 48 1115 C 48 1116.111 48.667 1117 49.5 1117 C 50.333 1117 51 1116.111 51 1115 C 51 1113.637 51.667 1113 53.094 1113 C 54.346 1113 55.397 1113.803 55.71 1115 C 55.998 1116.1 56.814 1117 57.523 1117 C 58.32 1117 58.613 1116.237 58.29 1115 C 57.915 1113.568 58.259 1113 59.5 1113 C 60.741 1113 61.085 1113.568 60.71 1115 C 60.423 1116.1 60.637 1117 61.187 1117 C 61.737 1117 62.423 1116.1 62.71 1115 C 63.385 1112.418 65.615 1112.418 66.29 1115 C 66.577 1116.1 67.335 1117 67.974 1117 C 68.68 1117 68.886 1116.216 68.5 1115 C 68.037 1113.54 68.32 1113 69.549 1113 C 70.741 1113 71.08 1113.585 70.71 1115 C 70.387 1116.237 70.68 1117 71.477 1117 C 72.186 1117 73.002 1116.1 73.29 1115 C 73.741 1113.276 74.654 1113 79.906 1113 C 85.333 1113 86 1113.219 86 1115 C 86 1116.149 86.667 1117 87.567 1117 C 88.68 1117 88.95 1116.419 88.5 1115 C 87.896 1113.096 88.314 1113.001 97.183 1113.03 C 104.001 1113.053 106.031 1113.334 104.75 1114.08 C 103.788 1114.641 103 1115.527 103 1116.05 C 103 1117.33 105.744 1117.267 106.175 1115.976 C 106.362 1115.413 108.209 1114.678 110.278 1114.342 C 113.485 1113.822 113.948 1113.973 113.413 1115.366 C 112.993 1116.46 113.317 1117 114.393 1117 C 115.333 1117 116 1116.17 116 1115 C 116 1113.667 116.667 1113 118 1113 C 119.333 1113 120 1113.667 120 1115 C 120 1116.111 120.667 1117 121.5 1117 C 122.333 1117 123 1116.111 123 1115 C 123 1113.296 123.667 1113 127.5 1113 C 131.333 1113 132 1113.296 132 1115 C 132 1116.1 132.45 1117 133 1117 C 133.55 1117 134 1116.1 134 1115 C 134 1113.227 134.667 1113 139.883 1113 C 144.926 1113 145.841 1113.286 146.29 1115 C 146.577 1116.1 147.546 1117 148.442 1117 C 149.76 1117 149.867 1116.62 149 1115 C 147.973 1113.082 148.24 1113 155.532 1113 C 162.68 1113 163.097 1113.12 162.5 1115 C 162.05 1116.419 162.32 1117 163.433 1117 C 164.333 1117 165 1116.149 165 1115 C 165 1113.533 165.667 1113 167.5 1113 C 169.333 1113 170 1113.533 170 1115 C 170 1116.1 170.45 1117 171 1117 C 171.55 1117 172 1116.1 172 1115 C 172 1113.333 172.667 1113 176 1113 C 179.333 1113 180 1113.333 180 1115 C 180 1116.149 180.667 1117 181.567 1117 C 182.68 1117 182.95 1116.419 182.5 1115 C 181.916 1113.162 182.32 1113 187.5 1113 C 192.68 1113 193.084 1113.162 192.5 1115 C 192.05 1116.419 192.32 1117 193.433 1117 C 194.333 1117 195 1116.149 195 1115 C 195 1113.667 195.667 1113 197 1113 C 198.333 1113 199 1113.667 199 1115 C 199 1117.403 201.528 1117.672 202.414 1115.364 C 202.995 1113.849 203.176 1113.849 204.85 1115.364 C 207.545 1117.803 209.761 1117.499 207.5 1115 C 205.703 1113.015 205.753 1113 214.345 1113 C 222.333 1113 223 1113.154 223 1115 C 223 1116.1 223.45 1117 224 1117 C 224.55 1117 225 1116.1 225 1115 C 225 1113.296 225.667 1113 229.5 1113 C 233.333 1113 234 1113.296 234 1115 C 234 1116.111 234.667 1117 235.5 1117 C 236.333 1117 237 1116.111 237 1115 C 237 1113.9 237.623 1113 238.383 1113 C 239.144 1113 240.002 1113.9 240.29 1115 C 240.898 1117.324 243 1117.712 243 1115.5 C 243 1114.359 244.256 1113.997 248.25 1113.986 C 251.138 1113.979 254.513 1113.701 255.75 1113.37 C 257.565 1112.883 258 1113.176 258 1114.883 C 258 1116.098 258.639 1117 259.5 1117 C 260.333 1117 261 1116.111 261 1115 C 261 1113.533 261.667 1113 263.5 1113 C 265.333 1113 266 1113.533 266 1115 C 266 1116.1 266.633 1117 267.406 1117 C 268.32 1117 268.63 1116.3 268.29 1115 C 267.817 1113.192 268.259 1113 272.883 1113 C 277.333 1113 278 1113.261 278 1115 C 278 1116.111 278.667 1117 279.5 1117 C 280.333 1117 281 1116.111 281 1115 C 281 1113.39 281.667 1113 284.417 1113 C 286.296 1113 288.04 1113.563 288.292 1114.25 C 288.658 1115.25 289.015 1115.25 290.075 1114.25 C 291.132 1113.253 410.81 1113 881.586 1113 L 1471.772 1113 L 1477.136 1110.213 C 1480.84 1108.289 1483.505 1105.933 1485.75 1102.6 L 1489 1097.774 L 1489 556.083 L 1489 14.392 L 1486.121 9.852 C 1484.538 7.356 1481.672 4.343 1479.753 3.157 L 1476.264 1 L 746.782 1 L 17.3 1 L 13.285 3.908 M 839 357.539 C 846.425 358.385 854.975 359.783 858 360.646 C 861.025 361.51 864.4 362.361 865.5 362.538 C 868.735 363.058 879.33 365.997 881.5 366.976 C 882.6 367.473 886.425 368.88 890 370.103 C 893.575 371.326 897.451 373.174 898.613 374.209 C 899.775 375.244 901.125 375.998 901.613 375.884 C 905.514 374.973 929.517 390.849 941.78 402.451 C 944.683 405.198 948.508 409.584 950.28 412.197 C 952.051 414.81 954.063 416.96 954.75 416.974 C 955.438 416.988 956 418.152 956 419.559 C 956 420.966 956.433 421.85 956.962 421.523 C 957.491 421.196 959.143 422.857 960.632 425.214 C 962.121 427.571 964.359 431.075 965.606 433 C 966.853 434.925 968.014 437.157 968.186 437.961 C 968.359 438.764 969.254 440.276 970.177 441.321 C 971.099 442.365 971.589 443.958 971.267 444.86 C 970.945 445.762 971.061 446.155 971.524 445.733 C 972.35 444.982 975.1 450.045 975.47 453 C 975.573 453.825 975.751 454.275 975.864 454 C 976.248 453.07 978.929 458.486 978.965 460.264 C 978.984 461.234 979.41 462.809 979.911 463.764 C 982.876 469.412 988.209 489.292 987.356 491.515 C 987.042 492.332 987.334 493 988.004 493 C 988.861 493 989.022 494.067 988.548 496.598 C 988.137 498.788 988.244 499.967 988.822 499.61 C 989.883 498.954 990.986 506.309 991.471 517.281 C 991.647 521.251 992.117 528.617 992.516 533.65 C 992.916 538.682 992.871 543.399 992.418 544.133 C 991.965 544.866 991.516 550.199 991.422 555.983 C 991.327 561.767 990.485 570.55 989.55 575.5 C 988.615 580.45 987.598 586.201 987.289 588.281 C 986.981 590.36 986.467 591.801 986.148 591.481 C 985.829 591.162 985.471 592.415 985.352 594.266 C 985.234 596.116 983.956 601.651 982.512 606.565 C 981.069 611.479 979.516 616.85 979.062 618.5 C 978.608 620.15 977.658 622.85 976.952 624.5 C 976.245 626.15 975.628 627.725 975.58 628 C 975.121 630.622 967.312 647.791 966.143 648.75 C 965.304 649.438 964.952 650 965.359 650 C 965.767 650 964.228 653.6 961.939 658 C 959.65 662.4 957.351 666 956.83 666 C 956.308 666 956.127 666.397 956.427 666.882 C 956.727 667.368 956.18 668.83 955.21 670.132 C 954.241 671.435 952.829 673.722 952.073 675.216 C 951.317 676.71 950.286 677.677 949.782 677.366 C 949.279 677.054 948.991 677.407 949.142 678.15 C 949.52 679.995 946.822 684 945.2 684 C 944.475 684 944.151 684.436 944.481 684.969 C 945.508 686.631 922.909 714.576 921.598 713.265 C 921.269 712.936 921 713.163 921 713.769 C 921 714.747 915.341 720.504 906.5 728.52 C 901.362 733.178 897.171 736.15 895.299 736.464 C 894.31 736.63 893.609 737.259 893.743 737.861 C 893.876 738.463 892.639 739.653 890.993 740.504 C 889.347 741.355 887.984 741.702 887.964 741.276 C 887.944 740.849 886.932 741.66 885.714 743.077 C 882.13 747.249 877.279 750.235 876.32 748.858 C 875.723 747.999 875.582 748.037 875.803 748.998 C 876.193 750.696 874.169 751.961 871 752 C 869.179 752.022 868.875 752.268 869.882 752.906 C 870.953 753.584 870.727 753.963 868.882 754.587 C 867.572 755.03 865.892 755.274 865.15 755.129 C 864.407 754.985 864.06 755.288 864.378 755.802 C 865.204 757.14 855.303 762.054 853.318 761.292 C 852.323 760.91 851.922 761.065 852.305 761.684 C 853.085 762.947 848.26 765.279 846.771 764.358 C 846.096 763.941 845.983 764.164 846.471 764.953 C 847.051 765.891 846.674 766.031 845 765.5 C 843.587 765.052 842.98 765.159 843.369 765.788 C 843.71 766.339 843.293 767.057 842.442 767.384 C 841.557 767.724 841.157 767.555 841.507 766.989 C 841.843 766.445 841.641 766 841.059 766 C 840.477 766 840 766.623 840 767.383 C 840 768.144 838.988 768.997 837.75 769.279 C 836.513 769.561 830.1 771.665 823.5 773.955 C 816.9 776.244 810.15 778.204 808.5 778.309 C 806.85 778.414 805.195 778.924 804.822 779.442 C 804.45 779.96 801.75 780.356 798.822 780.321 C 795.669 780.284 794.293 780.545 795.445 780.961 C 796.683 781.408 793.96 782.112 787.945 782.901 C 782.75 783.581 777.656 784.38 776.625 784.676 C 775.413 785.024 774.992 784.823 775.434 784.107 C 775.865 783.41 775.189 783 773.609 783 C 772.229 783 770.74 783.598 770.3 784.329 C 769.332 785.937 748.407 787.809 727 788.202 C 663.922 789.36 598.957 787.944 592 785.259 C 589.259 784.202 576.967 784.333 576.116 785.43 C 575.659 786.018 574.479 789.538 573.494 793.25 C 572.509 796.963 571.293 800 570.793 800 C 570.292 800 570.142 800.421 570.46 800.936 C 571.078 801.936 570.798 803.201 566.016 821 C 561.127 839.196 555.98 858.79 553.746 867.713 C 552.615 872.23 551.261 875.661 550.737 875.338 C 550.198 875.005 550.034 875.563 550.359 876.625 C 551.096 879.033 547.633 892.289 546.136 892.788 C 545.511 892.996 545.007 893.917 545.015 894.833 C 545.029 896.286 545.169 896.308 546.11 895 C 547.007 893.752 547.089 893.808 546.594 895.332 C 546.267 896.339 546 897.828 546 898.641 C 546 899.453 545.533 899.83 544.963 899.477 C 544.315 899.077 543.993 900.086 544.103 902.168 C 544.284 905.568 541.999 918.094 541.033 919 C 540.74 919.275 540.427 921.024 540.338 922.887 C 540.248 924.75 539.751 926.55 539.233 926.887 C 538.715 927.224 538.257 928.925 538.215 930.667 C 538.109 935.073 533.866 947.036 532.672 946.297 C 532.132 945.964 532.004 946.198 532.387 946.817 C 533.304 948.301 530.084 953.17 528.736 952.337 C 528.161 951.982 527.984 952.165 528.342 952.745 C 529.176 954.093 522.692 959.813 518.205 961.688 C 513.745 963.551 496.371 964.963 477.651 964.984 L 462.802 965 L 460.033 962.036 C 457.176 958.976 456 955.269 456 949.316 C 456 947.01 456.373 946.112 457.134 946.583 C 457.929 947.074 458.115 946.267 457.755 943.892 C 457.206 940.264 458.624 930.663 460.146 927.709 C 460.653 926.724 460.797 925.481 460.467 924.946 C 460.136 924.411 460.525 921.617 461.33 918.737 C 462.136 915.857 463.39 910.379 464.118 906.565 C 465.196 900.913 465.58 900.081 466.196 902.065 C 466.786 903.969 466.872 903.737 466.59 901 C 466.386 899.023 467.976 890.754 470.243 882 C 472.45 873.475 474.476 865.488 474.745 864.25 C 475.013 863.013 475.679 862 476.224 862 C 476.768 862 476.946 861.301 476.618 860.446 C 476.05 858.966 478.8 847.051 479.952 846 C 480.253 845.725 480.545 844.938 480.6 844.25 C 480.655 843.563 480.768 842.025 480.85 840.833 C 480.933 839.642 481.298 838.964 481.661 839.328 C 482.025 839.692 482.426 838.754 482.551 837.245 C 482.888 833.204 487.895 814.692 488.825 814.051 C 489.264 813.748 489.62 812.6 489.616 811.5 C 489.604 807.99 495.341 787.093 496.175 787.608 C 496.616 787.881 496.759 787.518 496.493 786.802 C 496.03 785.559 501.579 763.962 502.094 765 C 502.231 765.275 502.405 764.6 502.482 763.5 C 502.778 759.256 504.265 754 505.17 754 C 505.692 754 505.867 753.594 505.561 753.099 C 505.255 752.603 505.864 749.341 506.915 745.849 C 507.966 742.357 509.139 737.978 509.522 736.117 C 510.046 733.568 510.453 733.075 511.174 734.117 C 511.875 735.13 511.977 734.946 511.555 733.43 C 511.239 732.292 511.628 729.592 512.419 727.43 C 513.211 725.269 513.949 724.175 514.059 725 C 514.168 725.825 514.385 724.605 514.539 722.288 C 514.877 717.213 517.495 708.996 517.498 713 C 517.5 715.142 517.611 715.229 518.273 713.609 C 518.698 712.569 518.82 710.994 518.545 710.109 C 518.269 709.224 518.689 706.7 519.478 704.5 C 520.267 702.3 520.985 700.725 521.075 701 C 521.164 701.275 521.161 701.094 521.068 700.598 C 520.729 698.792 526.402 682.13 527.189 682.617 C 527.635 682.893 528.068 682.416 528.15 681.559 C 528.345 679.534 528.345 677.651 528.15 679.167 C 528.068 679.808 527.778 680.111 527.507 679.84 C 527.236 679.569 527.888 676.682 528.957 673.424 C 530.025 670.166 531.393 665.574 531.996 663.22 C 532.6 660.866 533.522 659.205 534.047 659.529 C 534.901 660.057 535.3 658.933 535.3 656 C 535.3 655.45 535.233 655.525 535.15 656.167 C 535.068 656.808 534.785 657.118 534.522 656.856 C 534.259 656.593 535.616 651.68 537.536 645.939 C 541.585 633.836 543.68 627.075 545.083 621.587 C 545.633 619.435 546.374 617.204 546.729 616.629 C 547.084 616.055 547.485 614.666 547.619 613.542 C 547.753 612.419 549.018 607.45 550.43 602.5 C 556.485 581.268 559.487 572.183 560.283 572.675 C 560.751 572.964 561.03 572.593 560.904 571.85 C 560.411 568.952 568.359 547.184 570.428 545.765 C 571.018 545.361 571.186 545.024 570.802 545.015 C 570.418 545.007 570.574 543.651 571.149 542.001 C 571.749 540.28 572.652 539.285 573.267 539.665 C 573.943 540.083 574.104 539.715 573.704 538.671 C 573.31 537.643 573.909 536.197 575.284 534.86 C 576.503 533.675 576.938 533.024 576.25 533.412 C 574.608 534.339 574.671 533.758 576.665 529.577 C 577.58 527.657 578.776 526.362 579.322 526.699 C 579.916 527.066 580.093 526.464 579.763 525.203 C 579.303 523.443 581.557 518.468 582.121 520 C 582.222 520.275 582.375 520.05 582.462 519.5 C 582.949 516.393 584.279 514.055 585.227 514.64 C 585.829 515.012 586.024 514.848 585.666 514.269 C 584.747 512.782 586.951 507.016 588.338 507.279 C 588.977 507.401 589.5 506.938 589.5 506.25 C 589.5 505.563 589.137 505.113 588.693 505.25 C 588.249 505.388 588.724 504.6 589.749 503.5 C 590.774 502.4 591.653 501.143 591.702 500.707 C 591.993 498.161 594.392 494.124 595.286 494.677 C 595.948 495.086 596.094 494.689 595.68 493.607 C 595.243 492.47 595.864 491.104 597.51 489.579 C 600.074 487.202 600.908 485.321 598.827 486.607 C 598.182 487.006 598.407 486.257 599.327 484.943 C 600.247 483.63 601.056 482.88 601.125 483.277 C 601.194 483.675 601.311 483.663 601.387 483.25 C 601.866 480.619 604.38 476.117 605.116 476.572 C 605.602 476.872 606 476.416 606 475.559 C 606 474.702 606.375 474 606.833 474 C 607.292 474 607.667 473.417 607.667 472.705 C 607.667 471.069 615.683 457.508 617.581 455.933 C 618.362 455.285 619 454.364 619 453.885 C 619 452.327 635.594 432.5 636.899 432.5 C 637.596 432.5 637.886 432.219 637.542 431.876 C 636.573 430.906 647.061 419.92 648.253 420.656 C 648.834 421.015 649.028 420.855 648.685 420.3 C 648.342 419.745 649.173 418.247 650.531 416.971 C 651.889 415.695 653.056 414.955 653.125 415.326 C 653.194 415.697 653.306 415.576 653.375 415.057 C 653.583 413.49 665.872 403.234 666.125 404.416 C 666.194 404.737 666.306 404.451 666.375 403.78 C 666.444 403.108 667.4 402.093 668.5 401.523 C 669.6 400.952 673.65 398.434 677.5 395.926 C 691.045 387.102 700.496 381.956 703.916 381.541 C 705.337 381.369 706.05 381.153 705.5 381.061 C 704.95 380.97 706.698 379.804 709.385 378.472 C 712.072 377.14 714.66 376.29 715.135 376.584 C 715.611 376.878 716 376.593 716 375.951 C 716 375.223 716.889 375.006 718.36 375.375 C 719.975 375.781 721.272 375.357 722.47 374.033 C 724.627 371.649 736.965 367.706 739.585 368.562 C 740.903 368.993 741.101 368.902 740.222 368.268 C 739.362 367.648 742.791 366.498 750.722 364.746 C 757.2 363.314 763.175 362.134 764 362.122 C 764.825 362.11 768.425 361.413 772 360.573 C 775.875 359.663 780.274 359.294 782.892 359.658 C 785.815 360.065 787.07 359.922 786.643 359.231 C 786.223 358.551 789.715 357.97 796.75 357.549 C 802.663 357.195 808.625 356.769 810 356.603 C 816.543 355.81 826.686 356.137 839 357.539 M 864 170.888 C 869.225 171.448 875.567 172.114 878.092 172.368 C 892.466 173.816 913.151 177.435 911.405 178.196 C 910.017 178.802 910.314 178.902 912.5 178.566 C 916.684 177.923 928.143 179.959 927.371 181.209 C 926.983 181.837 927.566 181.955 928.923 181.525 C 930.145 181.137 931.712 181.346 932.504 182.003 C 933.279 182.646 934.316 182.923 934.809 182.618 C 935.645 182.101 955.787 188.197 962.5 190.997 C 964.15 191.686 966.4 192.614 967.5 193.061 C 977.931 197.296 1001.043 208.54 1005.411 211.504 C 1007.434 212.877 1009.319 214 1009.601 214 C 1011.009 214 1032.812 229.496 1032.382 230.191 C 1032.107 230.636 1032.522 231 1033.305 231 C 1035.861 231 1049.246 242.447 1061.757 255.333 C 1068.498 262.277 1073.958 268.305 1073.889 268.729 C 1073.82 269.153 1073.816 269.323 1073.882 269.106 C 1074.148 268.221 1081.436 278.557 1081.543 279.97 C 1081.606 280.812 1081.735 281.066 1081.829 280.536 C 1082.085 279.092 1085.08 282.418 1085.49 284.603 C 1085.686 285.646 1085.881 286.128 1085.923 285.673 C 1085.966 285.219 1087.157 286.222 1088.572 287.903 C 1090.013 289.615 1090.824 291.476 1090.417 292.134 C 1089.989 292.827 1090.121 293.043 1090.741 292.66 C 1091.694 292.071 1093.091 293.961 1093.577 296.5 C 1093.683 297.05 1093.821 297.327 1093.885 297.115 C 1094.363 295.519 1110.333 323.208 1110.333 325.634 C 1110.333 326.385 1110.613 327 1110.956 327 C 1112.257 327 1120.279 344.739 1119.528 345.955 C 1119.25 346.405 1119.69 347.328 1120.506 348.005 C 1121.323 348.683 1122.539 351.096 1123.208 353.369 C 1123.878 355.641 1124.982 358.593 1125.662 359.928 C 1126.341 361.264 1126.655 362.749 1126.359 363.229 C 1126.062 363.708 1126.511 365.557 1127.356 367.337 C 1129.024 370.852 1135.198 395.516 1137.035 406 C 1137.661 409.575 1138.585 414.75 1139.088 417.5 C 1139.592 420.25 1139.742 423.738 1139.422 425.25 C 1139.103 426.763 1139.236 428 1139.718 428 C 1140.803 428 1143.048 445.102 1142.326 447.863 C 1142.037 448.966 1142.331 451.473 1142.978 453.434 C 1144.533 458.145 1144.591 523.459 1143.047 530.315 C 1142.45 532.963 1142.246 535.588 1142.592 536.148 C 1143.248 537.21 1141.275 559.382 1140.291 562 C 1139.981 562.825 1139.591 566.514 1139.424 570.197 C 1139.257 573.881 1138.632 579.506 1138.034 582.697 C 1137.436 585.889 1136.678 591.425 1136.35 595 C 1136.021 598.575 1135.401 602.429 1134.971 603.565 C 1134.542 604.701 1133.888 608.301 1133.519 611.565 C 1133.149 614.829 1132.258 619.75 1131.537 622.5 C 1130.817 625.25 1129.635 630.304 1128.911 633.732 C 1128.107 637.542 1127.287 639.485 1126.802 638.732 C 1126.34 638.014 1126.078 638.959 1126.174 641 C 1126.32 644.106 1122.296 661.568 1118.569 674 C 1117.826 676.475 1116.455 681.2 1115.521 684.5 C 1112.263 696.011 1111.853 697.027 1110.749 696.345 C 1110.064 695.922 1109.886 696.262 1110.27 697.261 C 1111.117 699.469 1109.132 706.2 1107.865 705.416 C 1107.279 705.054 1106.941 705.58 1107.078 706.641 C 1107.21 707.663 1106.962 709.78 1106.527 711.345 C 1105.947 713.43 1105.508 713.831 1104.883 712.845 C 1104.241 711.832 1103.998 711.994 1103.897 713.5 C 1103.823 714.6 1103.83 715.879 1103.913 716.343 C 1103.995 716.807 1103.509 718.715 1102.834 720.583 C 1101.99 722.918 1101.345 723.592 1100.772 722.74 C 1100.278 722.004 1100.174 722.52 1100.518 724.01 C 1100.918 725.747 1100.462 727.2 1099.038 728.729 C 1097.906 729.944 1097.037 731.29 1097.108 731.719 C 1097.179 732.149 1097.115 732.95 1096.966 733.5 C 1096.817 734.05 1096.613 733.825 1096.513 733 C 1096.413 732.175 1095.803 732.775 1095.158 734.334 C 1094.513 735.893 1094.234 737.569 1094.537 738.06 C 1094.841 738.551 1094.412 740.201 1093.584 741.726 C 1092.715 743.33 1092.036 743.867 1091.977 743 C 1091.916 742.126 1091.488 742.46 1090.95 743.801 C 1090.368 745.251 1090.38 745.883 1090.982 745.511 C 1091.507 745.187 1091.293 746.401 1090.507 748.211 C 1089.721 750.02 1088.994 751.05 1088.891 750.5 C 1088.788 749.95 1088.658 750.175 1088.602 751 C 1088.452 753.2 1085.874 759 1085.045 759 C 1084.654 759 1084.323 759.563 1084.311 760.25 C 1084.278 762.095 1079.506 769.76 1079.486 768 C 1079.474 766.875 1079.271 766.813 1078.676 767.75 C 1078.239 768.438 1078.155 769.442 1078.489 769.982 C 1079.259 771.229 1074.57 778.236 1073.608 777.275 C 1073.216 776.882 1073.19 777.331 1073.551 778.272 C 1073.971 779.366 1073.631 780.204 1072.609 780.596 C 1071.731 780.934 1071.247 781.59 1071.534 782.055 C 1071.821 782.519 1071.109 783.407 1069.95 784.027 C 1068.792 784.646 1068.055 785.7 1068.311 786.369 C 1068.568 787.037 1068.153 788.438 1067.389 789.483 C 1066.625 790.528 1065.948 791.184 1065.885 790.941 C 1065.821 790.699 1065.709 791.175 1065.635 792 C 1065.561 792.825 1064.488 793.944 1063.25 794.487 C 1062.013 795.03 1061 795.844 1061 796.296 C 1061 796.748 1061.519 796.797 1062.154 796.405 C 1062.789 796.012 1061.861 797.795 1060.092 800.366 C 1058.219 803.089 1056.413 804.755 1055.768 804.357 C 1055.053 803.915 1054.885 804.258 1055.294 805.322 C 1055.728 806.456 1054.841 807.839 1052.464 809.737 C 1050.559 811.256 1049.453 812.5 1050.006 812.5 C 1051.247 812.5 1042.376 823.451 1040.994 823.625 C 1040.447 823.694 1040.338 823.821 1040.75 823.907 C 1041.163 823.993 1040.626 824.724 1039.559 825.532 C 1038.491 826.339 1037.931 827 1038.314 827 C 1038.697 827 1036.47 829.687 1033.364 832.972 C 1030.259 836.256 1027.262 838.662 1026.705 838.317 C 1026.147 837.973 1025.968 838.139 1026.307 838.687 C 1026.645 839.235 1025.365 841.193 1023.461 843.038 C 1021.557 844.883 1019.944 846.079 1019.875 845.696 C 1019.806 845.313 1019.694 845.452 1019.625 846.004 C 1019.417 847.677 1010.692 854.928 1009.656 854.288 C 1009.125 853.959 1008.981 854.16 1009.335 854.733 C 1010.387 856.435 993.476 870.412 991.696 869.312 C 991.143 868.971 990.991 869.176 991.357 869.769 C 991.724 870.362 990.668 871.812 989.012 872.992 C 987.355 874.171 985.947 874.993 985.882 874.818 C 985.816 874.643 985.789 874.755 985.821 875.067 C 985.852 875.38 981.518 878.495 976.189 881.991 C 970.86 885.487 965.375 889.099 964 890.017 C 958.394 893.763 944.416 900.665 943.25 900.264 C 942.563 900.027 942 900.25 942 900.759 C 942 901.949 937.26 904.257 925 909.037 C 921.975 910.217 918.306 911.816 916.846 912.591 C 915.386 913.366 913.338 914 912.296 914 C 911.253 914 909.973 914.395 909.45 914.877 C 907.145 917.004 869.607 927.392 866.84 926.668 C 865.828 926.404 865 926.544 865 926.98 C 865 927.697 859.549 928.9 853 929.629 C 851.625 929.782 846.45 930.597 841.5 931.44 C 835.897 932.395 829.575 932.773 824.75 932.443 C 819.697 932.098 817 932.277 817 932.957 C 817 933.641 812.096 933.936 802.75 933.814 C 789.507 933.641 789.101 933.581 797 932.976 C 803.664 932.465 801.828 932.323 788.5 932.32 C 771.613 932.317 763.557 931.526 764.52 929.967 C 764.797 929.519 762.656 929.177 759.762 929.206 C 756.415 929.24 751.146 928.135 745.286 926.171 C 731.241 921.463 715.958 914.877 716.614 913.815 C 716.937 913.293 716.593 913.003 715.85 913.17 C 714.156 913.551 697 905.11 697 903.895 C 697 903.403 696.663 903.071 696.25 903.159 C 694.79 903.468 692.019 901.778 692.558 900.907 C 692.858 900.421 692.502 900.254 691.766 900.536 C 691.03 900.819 687.294 898.87 683.464 896.207 C 675.016 890.333 662.238 881.066 659.5 878.828 C 647.971 869.405 642.391 864.562 636.154 858.564 C 627.227 849.979 618.546 840.121 619.272 839.394 C 620.153 838.514 624 841.372 624 842.907 C 624 843.692 624.266 844.067 624.591 843.742 C 625.692 842.641 624.031 839.488 621.824 838.491 C 618.741 837.099 618.263 835.005 621.193 835.723 C 622.462 836.034 623.95 836.622 624.5 837.029 C 625.05 837.436 627.075 838.088 629 838.477 C 630.925 838.867 634.525 839.785 637 840.518 C 659.406 847.157 680.646 851.312 711 854.993 C 715.125 855.494 721.875 856.358 726 856.914 C 767.93 862.569 816.803 859.161 855.36 847.894 C 868.294 844.115 887.856 837.042 888.57 835.887 C 888.871 835.399 889.896 835 890.848 835 C 891.799 835 894.135 834.185 896.039 833.188 C 914.05 823.762 920.477 820.153 927.539 815.503 C 935.296 810.394 947.932 800.749 954.3 795.075 C 955.89 793.659 957.71 792.48 958.345 792.455 C 958.98 792.43 959.412 791.941 959.305 791.369 C 959.197 790.797 961.785 787.681 965.055 784.446 C 968.325 781.21 971.069 778.999 971.152 779.531 C 971.236 780.064 971.354 779.968 971.415 779.317 C 971.574 777.609 979.255 769 980.619 769 C 981.252 769 982.51 767.871 983.414 766.49 C 984.319 765.11 984.562 764.097 983.955 764.24 C 983.348 764.383 984.191 763.038 985.827 761.25 C 987.464 759.463 988.599 758 988.35 758 C 988.102 758 989.159 756.348 990.699 754.328 C 992.24 752.308 993.507 751.296 993.515 752.078 C 993.528 753.224 993.693 753.244 994.365 752.183 C 994.825 751.459 994.946 750.613 994.635 750.302 C 994.325 749.991 994.73 748.796 995.535 747.646 C 996.341 746.496 997 745.88 997 746.277 C 997 746.675 997.044 746.663 997.099 746.25 C 997.321 744.561 999.204 741.871 999.769 742.436 C 1000.103 742.77 1000.47 742.402 1000.585 741.619 C 1000.886 739.568 1012.194 721 1013.142 721 C 1013.579 721 1013.727 720.438 1013.47 719.75 C 1013.212 719.063 1013.899 717.15 1014.994 715.5 C 1016.09 713.85 1017.073 712.95 1017.178 713.5 C 1017.283 714.05 1017.432 713.6 1017.509 712.5 C 1017.673 710.166 1021.811 701.794 1023.262 700.862 C 1023.809 700.511 1023.989 699.791 1023.663 699.263 C 1023.336 698.735 1023.875 697.438 1024.861 696.38 C 1025.846 695.322 1026.503 694.009 1026.321 693.462 C 1026.138 692.915 1027.329 689.325 1028.968 685.484 C 1030.606 681.643 1032.026 678.838 1032.123 679.25 C 1032.22 679.663 1032.338 679.438 1032.385 678.75 C 1032.551 676.328 1035.93 667.519 1036.126 669 C 1036.236 669.825 1036.432 668.804 1036.563 666.73 C 1036.694 664.657 1037.113 662.182 1037.495 661.23 C 1038.981 657.521 1044.979 635.395 1044.989 633.583 C 1044.995 632.529 1045.338 632.004 1045.75 632.417 C 1046.163 632.829 1046.556 631.892 1046.624 630.333 C 1046.692 628.775 1047.485 624.125 1048.385 620 C 1053.856 594.94 1056.794 572.525 1059.461 535.5 C 1062.695 490.608 1062.258 460.912 1058.007 436.5 C 1056.858 429.9 1055.513 422.158 1055.019 419.296 C 1054.524 416.434 1053.706 413.284 1053.199 412.296 C 1052.693 411.308 1052.009 408.75 1051.679 406.611 C 1050.262 397.405 1041.328 372.229 1035.671 361.5 C 1032.339 355.181 1024.783 342.55 1024.006 342 C 1023.617 341.725 1022.747 340.452 1022.072 339.171 C 1021.397 337.89 1020.092 335.963 1019.172 334.888 C 1018.253 333.814 1017.444 332.5 1017.375 331.968 C 1017.306 331.435 1017.194 331.312 1017.125 331.694 C 1017.056 332.076 1015.988 331.037 1014.75 329.385 C 1010.931 324.287 1009.806 323.025 999.56 312.353 C 994.093 306.659 990.043 301.966 990.56 301.923 C 991.077 301.881 990.654 301.688 989.619 301.493 C 988.585 301.298 986.335 299.836 984.619 298.244 C 980.867 294.762 973.424 289 972.677 289 C 972.382 289 969.297 287.099 965.821 284.775 C 959.005 280.22 951.586 275.959 946 273.392 C 944.075 272.508 939.8 270.536 936.5 269.01 C 923.277 262.896 899.444 255.885 881.803 252.921 C 877.572 252.21 874.368 251.214 874.681 250.707 C 875.013 250.17 873.976 250.066 872.189 250.459 C 870.505 250.828 862.911 250.319 855.314 249.326 C 837.174 246.955 790.692 246.899 775.371 249.228 C 769.8 250.076 764.08 250.547 762.659 250.275 C 761.061 249.97 759.462 250.395 758.466 251.391 C 757.581 252.276 755.859 253 754.639 253 C 753.419 253 749.89 253.659 746.797 254.465 C 743.704 255.27 740.122 256.139 738.837 256.394 C 737.551 256.65 734.359 257.523 731.742 258.334 C 729.126 259.145 725.976 259.588 724.742 259.318 C 723.12 258.962 722.873 259.091 723.851 259.785 C 725.224 260.758 721.903 261.822 716 262.298 C 714.625 262.409 713.275 262.748 713 263.052 C 712.407 263.707 706.904 266.18 702 267.996 C 700.075 268.708 695.214 270.793 691.198 272.628 C 687.182 274.464 683.582 275.92 683.198 275.864 C 682.814 275.809 682.68 275.816 682.899 275.882 C 683.118 275.947 681.138 277.148 678.499 278.552 C 675.859 279.955 671.688 282.226 669.23 283.599 C 666.772 284.971 664.517 285.851 664.22 285.553 C 663.923 285.256 663.046 285.917 662.271 287.023 C 661.497 288.129 660.444 288.774 659.932 288.458 C 659.419 288.141 659 288.407 659 289.048 C 659 289.689 658.407 289.986 657.683 289.708 C 656.958 289.43 654.897 290.704 653.103 292.539 C 651.186 294.5 649.238 295.645 648.379 295.315 C 647.565 295.003 647.047 295.26 647.209 295.895 C 647.369 296.523 645.7 298.04 643.5 299.268 C 641.3 300.496 639.232 301.864 638.905 302.309 C 638.577 302.754 636.056 304.779 633.302 306.809 C 630.547 308.839 624.141 313.875 619.066 318 C 613.99 322.125 609.424 325.556 608.919 325.625 C 608.413 325.694 608.277 325.806 608.616 325.875 C 608.955 325.944 605.158 330.163 600.177 335.25 C 595.197 340.338 590.082 345.839 588.811 347.476 C 587.436 349.246 586.494 349.854 586.485 348.976 C 586.473 347.863 586.274 347.808 585.676 348.75 C 585.239 349.438 585.12 350.385 585.41 350.855 C 585.701 351.325 584.827 352.753 583.469 354.029 C 582.111 355.305 580.966 355.933 580.923 355.424 C 580.881 354.916 580.691 355.325 580.5 356.334 C 580.309 357.343 579.331 358.839 578.326 359.658 C 577.322 360.478 577.123 360.826 577.885 360.431 C 578.647 360.037 578.238 361.111 576.976 362.818 C 575.714 364.525 574.335 365.707 573.91 365.444 C 573.486 365.182 572.856 365.425 572.51 365.984 C 572.165 366.543 572.471 367.018 573.191 367.041 C 573.911 367.063 572.942 368.413 571.038 370.041 C 569.134 371.668 568.176 373 568.91 373 C 569.979 373 569.999 373.297 569.009 374.489 C 568.329 375.308 567.305 375.688 566.732 375.334 C 566.148 374.973 565.988 375.171 566.367 375.785 C 566.739 376.387 566.136 378.369 565.026 380.19 C 563.916 382.01 562.971 383.05 562.927 382.5 C 562.883 381.95 562.693 382.311 562.504 383.302 C 562.316 384.293 561.338 386.295 560.331 387.75 C 559.324 389.204 558.613 389.856 558.75 389.197 C 558.888 388.539 558.502 388 557.893 388 C 557.284 388 557.048 388.683 557.368 389.517 C 557.884 390.861 557.013 392.872 552.265 401.306 C 551.585 402.513 550.955 403.163 550.865 402.75 C 550.774 402.338 550.655 402.563 550.6 403.25 C 550.446 405.173 535.924 433.455 534.895 433.835 C 534.396 434.02 534.254 434.602 534.579 435.129 C 534.905 435.655 534.008 437.612 532.586 439.476 C 531.164 441.341 530.007 443.234 530.015 443.683 C 530.024 444.132 530.467 443.825 531 443 C 531.533 442.175 531.962 441.95 531.953 442.5 C 531.933 443.728 529.049 447.654 528.875 446.691 C 528.806 446.311 528.694 446.802 528.625 447.782 C 528.425 450.628 524.832 457.932 523.743 457.706 C 523.197 457.593 522.523 458.125 522.245 458.889 C 521.916 459.795 522.169 460.014 522.97 459.519 C 523.887 458.952 523.867 459.361 522.89 461.129 C 522.17 462.433 521.681 464.002 521.803 464.617 C 521.926 465.231 521.345 466.298 520.513 466.989 C 519.681 467.68 518.986 468.977 518.968 469.872 C 518.933 471.668 516.06 475.948 515.901 474.441 C 515.846 473.924 515.682 474.625 515.535 476 C 515.204 479.113 510.108 489.053 509.897 487 C 509.812 486.175 509.668 486.638 509.578 488.029 C 509.364 491.312 503.973 504 502.791 504 C 502.291 504 502.139 504.416 502.454 504.925 C 503.167 506.079 501.001 511 499.78 511 C 499.286 511 499.131 511.404 499.436 511.897 C 499.741 512.39 499.335 514.302 498.534 516.147 C 497.733 517.991 497.003 518.825 496.91 518 C 496.818 517.175 496.668 517.645 496.577 519.045 C 496.329 522.886 493.913 528.064 492.714 527.323 C 492.059 526.918 491.902 527.301 492.299 528.336 C 493.146 530.543 492.133 533 490.377 533 C 489.48 533 489.009 533.998 489.08 535.75 C 489.221 539.235 482.472 556.58 481.098 556.262 C 480.534 556.131 480.312 556.65 480.605 557.414 C 481.249 559.092 477.353 568 475.975 568 C 475.439 568 475 568.477 475 569.059 C 475 569.641 475.419 569.859 475.932 569.542 C 476.444 569.225 476.247 570.211 475.493 571.733 C 474.739 573.255 473.656 575.738 473.086 577.25 C 472.516 578.763 471.54 580 470.918 580 C 470.295 580 470.047 580.68 470.366 581.512 C 471.029 583.239 469.132 588 467.78 588 C 467.286 588 467.131 588.404 467.436 588.897 C 467.741 589.39 467.335 591.302 466.534 593.147 C 465.733 594.991 465.003 596.05 464.912 595.5 C 464.82 594.95 464.633 595.4 464.496 596.5 C 464.021 600.331 458.785 611.985 457.81 611.382 C 457.256 611.04 456.913 611.806 457.024 613.138 C 457.333 616.841 457.065 618.398 456.258 617.591 C 455.849 617.183 455.468 617.445 455.41 618.174 C 455.352 618.903 455.236 620.314 455.152 621.309 C 455.069 622.304 454.555 622.843 454.011 622.507 C 453.468 622.171 453.249 622.486 453.526 623.207 C 453.93 624.259 447.099 643.354 443.046 652.5 C 442.559 653.6 440.936 657.875 439.439 662 C 435.953 671.61 429.778 685.401 428.768 685.835 C 428.339 686.02 428.215 686.539 428.493 686.988 C 429.202 688.136 424.647 697.449 423.235 697.738 C 422.52 697.884 422.323 697.306 422.723 696.238 C 423.262 694.8 423.117 694.709 421.884 695.709 C 420.693 696.675 419.742 696.521 417.148 694.944 C 415.195 693.756 414.185 692.509 414.615 691.815 C 415.076 691.068 414.792 690.866 413.811 691.242 C 412.977 691.562 411.627 691.076 410.812 690.162 C 409.997 689.248 404.97 684.466 399.64 679.537 C 393.721 674.062 390.154 670.04 390.476 669.203 C 390.771 668.432 390.485 668.005 389.819 668.227 C 389.169 668.444 386.387 666.119 383.635 663.06 C 380.884 660.002 376.946 655.7 374.884 653.5 C 370.018 648.309 366.705 644.033 367.427 643.875 C 367.742 643.806 367.6 643.694 367.111 643.625 C 366.622 643.556 364.035 640.819 361.361 637.542 C 358.688 634.266 355.696 630.762 354.714 629.756 C 353.731 628.75 353.195 627.493 353.523 626.964 C 353.85 626.434 353.509 626 352.765 626 C 351.413 626 343.277 616.129 343.75 615.063 C 343.888 614.753 343.629 614.5 343.175 614.5 C 342.448 614.5 337.153 608.446 327.5 596.579 C 325.85 594.551 324.612 592.466 324.75 591.946 C 324.887 591.426 324.328 591 323.506 591 C 322.685 591 320.627 589.088 318.935 586.75 C 317.242 584.413 314.296 580.813 312.388 578.75 C 310.48 576.688 309.223 575 309.595 575 C 309.966 575 309.093 574.074 307.654 572.942 C 306.215 571.811 305.083 570.573 305.138 570.192 C 305.192 569.812 305.127 569.163 304.993 568.75 C 304.86 568.338 304.694 568.507 304.625 569.126 C 304.556 569.745 302.488 567.73 300.028 564.648 C 297.569 561.566 294.881 558.785 294.056 558.468 C 292.74 557.963 292.737 557.778 294.028 556.962 C 295.291 556.163 295.272 556.028 293.89 556.015 C 293.004 556.007 288.954 552.298 284.89 547.772 C 280.825 543.247 270.12 532.225 261.1 523.279 C 245.633 507.939 244.679 506.771 244.326 502.757 C 244.025 499.332 244.548 497.564 247.004 493.708 C 248.864 490.787 250.502 489.192 251.198 489.622 C 251.942 490.082 252.127 489.774 251.729 488.737 C 251.388 487.849 251.828 486.562 252.726 485.823 C 253.609 485.095 256.022 482.367 258.086 479.761 C 260.329 476.93 262.042 475.521 262.341 476.261 C 262.66 477.05 262.871 476.921 262.921 475.904 C 263.009 474.128 271.627 465.878 273.714 465.571 C 274.445 465.464 274.789 465.123 274.479 464.813 C 273.827 464.16 278.425 460.213 286.868 454.176 C 289.446 452.333 290.414 452.098 291.548 453.04 C 292.334 453.693 292.688 454.695 292.334 455.268 C 291.955 455.881 292.177 456.009 292.873 455.578 C 293.566 455.15 295.182 456.052 296.778 457.759 C 298.275 459.36 304.675 466.165 311 472.88 C 317.325 479.596 323.224 486.408 324.11 488.018 C 324.995 489.629 325.929 490.737 326.185 490.481 C 326.441 490.225 330.892 494.623 336.075 500.253 C 341.259 505.884 347.369 512.518 349.653 514.995 C 351.937 517.473 353.962 519.95 354.153 520.5 C 354.344 521.05 354.747 521.418 355.05 521.317 C 355.822 521.059 375.759 542.28 375.892 543.5 C 375.951 544.05 376.563 544.5 377.25 544.5 C 377.938 544.5 378.556 545.063 378.625 545.75 C 378.694 546.438 378.806 546.697 378.875 546.326 C 379.028 545.502 383.942 550.015 383.837 550.883 C 383.797 551.222 383.816 551.332 383.882 551.128 C 383.947 550.923 384.67 551.311 385.489 551.991 C 386.308 552.671 386.729 553.629 386.426 554.12 C 386.122 554.612 386.689 555.308 387.687 555.667 C 388.684 556.026 390.343 557.189 391.374 558.251 C 394.127 561.088 394.925 559.915 400.732 544.5 C 401.561 542.3 402.614 539.6 403.071 538.5 C 403.529 537.4 405.096 533.125 406.554 529 C 409.981 519.304 412.393 512.712 414.786 506.5 C 415.845 503.75 418.407 497 420.478 491.5 C 422.549 486 424.641 481.349 425.128 481.165 C 425.614 480.98 425.784 480.46 425.506 480.009 C 425.227 479.558 426.432 476.109 428.184 472.345 C 429.936 468.58 431.471 464.825 431.596 464 C 431.721 463.175 434.374 456.425 437.492 449 C 440.61 441.575 443.99 433.475 445.002 431 C 451.774 414.436 453.355 411.102 454.192 411.619 C 454.71 411.939 455.03 411.593 454.904 410.85 C 454.488 408.404 456.181 403.994 457.277 404.671 C 457.938 405.08 458.103 404.711 457.713 403.695 C 457.369 402.797 457.739 400.81 458.537 399.281 C 459.335 397.751 460.057 396.95 460.142 397.5 C 460.227 398.05 460.353 397.825 460.423 397 C 460.689 393.855 462.184 390.996 463.227 391.64 C 463.845 392.022 464.023 391.846 463.642 391.229 C 462.728 389.75 465.048 384.912 466.301 385.686 C 466.855 386.029 467.006 385.819 466.636 385.22 C 465.697 383.701 470.976 372.867 472.267 373.665 C 472.893 374.052 473.008 373.821 472.554 373.088 C 472.115 372.376 472.572 371.238 473.65 370.359 C 474.667 369.53 474.982 369.109 474.349 369.424 C 473.716 369.738 474.383 367.634 475.832 364.748 C 477.281 361.862 478.518 360.175 478.581 361 C 478.644 361.825 478.817 362.05 478.966 361.5 C 479.115 360.95 479.177 360.144 479.105 359.709 C 478.824 358.029 481.157 354.979 482.22 355.636 C 482.932 356.076 483.125 355.767 482.75 354.79 C 482.407 353.897 484.117 350.129 486.83 345.8 C 489.398 341.702 492.021 337.483 492.657 336.424 C 493.293 335.366 494.29 334.607 494.871 334.738 C 495.452 334.869 495.699 334.379 495.419 333.648 C 495.138 332.918 495.604 331.743 496.454 331.038 C 497.305 330.332 498 329.214 498 328.552 C 498 327.89 499.125 326.292 500.5 325 C 501.875 323.708 503 322.125 503 321.481 C 503 320.077 506.967 316.296 507.077 317.595 C 507.119 318.093 507.307 317.69 507.495 316.701 C 508.015 313.97 512.994 307.878 514.132 308.582 C 514.683 308.922 514.995 308.593 514.824 307.85 C 514.4 305.998 519.978 298.868 521.241 299.649 C 521.803 299.996 522.053 299.659 521.799 298.898 C 521.546 298.139 521.825 297.015 522.42 296.401 C 523.014 295.786 528.429 290.032 534.452 283.613 C 541.061 276.57 545.94 272.147 546.754 272.459 C 547.497 272.744 547.839 272.549 547.515 272.025 C 546.826 270.909 548.396 269.258 558.216 260.777 C 579.032 242.799 595.156 231.064 599.239 230.921 C 600.482 230.878 600.919 230.609 600.209 230.324 C 597.315 229.163 627.294 211.965 633 211.512 C 634.375 211.402 634.825 211.216 634 211.098 C 631.653 210.762 643.603 205.192 666.5 195.949 C 673.535 193.109 680.412 191.215 681.837 191.724 C 682.752 192.051 683.15 191.934 682.722 191.464 C 680.37 188.883 731.3 176.059 746 175.532 C 749.575 175.403 751.825 175.182 751 175.04 C 747.612 174.455 769.99 171.505 792 169.634 C 800.382 168.922 854.44 169.863 864 170.888" stroke-linecap="round" />
</g>
		<g transform="matrix(1.33 0 0 1.33 -30.37 134.4)"  >
<path style="stroke: rgb(89,133,167); stroke-width: 1; stroke-dasharray: none; stroke-linecap: butt; stroke-dashoffset: 0; stroke-linejoin: miter; stroke-miterlimit: 4; fill: rgb(89,133,167); fill-rule: nonzero; opacity: 1;" vector-effect="non-scaling-stroke"  transform=" translate(-724.39, -660.63)" d="M 810 356.603 C 808.625 356.769 802.663 357.195 796.75 357.549 C 789.715 357.97 786.223 358.551 786.643 359.231 C 787.07 359.922 785.815 360.065 782.892 359.658 C 780.274 359.294 775.875 359.663 772 360.573 C 768.425 361.413 764.825 362.11 764 362.122 C 763.175 362.134 757.2 363.314 750.722 364.746 C 742.791 366.498 739.362 367.648 740.222 368.268 C 741.101 368.902 740.903 368.993 739.585 368.562 C 736.965 367.706 724.627 371.649 722.47 374.033 C 721.272 375.357 719.975 375.781 718.36 375.375 C 716.889 375.006 716 375.223 716 375.951 C 716 376.593 715.611 376.878 715.135 376.584 C 714.66 376.29 712.072 377.14 709.385 378.472 C 706.698 379.804 704.95 380.97 705.5 381.061 C 706.05 381.153 705.337 381.369 703.916 381.541 C 700.496 381.956 691.045 387.102 677.5 395.926 C 673.65 398.434 669.6 400.952 668.5 401.523 C 667.4 402.093 666.444 403.108 666.375 403.78 C 666.306 404.451 666.194 404.737 666.125 404.416 C 665.872 403.234 653.583 413.49 653.375 415.057 C 653.306 415.576 653.194 415.697 653.125 415.326 C 653.056 414.955 651.889 415.695 650.531 416.971 C 649.173 418.247 648.342 419.745 648.685 420.3 C 649.028 420.855 648.834 421.015 648.253 420.656 C 647.061 419.92 636.573 430.906 637.542 431.876 C 637.886 432.219 637.596 432.5 636.899 432.5 C 635.594 432.5 619 452.327 619 453.885 C 619 454.364 618.362 455.285 617.581 455.933 C 615.683 457.508 607.667 471.069 607.667 472.705 C 607.667 473.417 607.292 474 606.833 474 C 606.375 474 606 474.702 606 475.559 C 606 476.416 605.602 476.872 605.116 476.572 C 604.38 476.117 601.866 480.619 601.387 483.25 C 601.311 483.663 601.194 483.675 601.125 483.277 C 601.056 482.88 600.247 483.63 599.327 484.943 C 598.407 486.257 598.182 487.006 598.827 486.607 C 600.908 485.321 600.074 487.202 597.51 489.579 C 595.864 491.104 595.243 492.47 595.68 493.607 C 596.094 494.689 595.948 495.086 595.286 494.677 C 594.392 494.124 591.993 498.161 591.702 500.707 C 591.653 501.143 590.774 502.4 589.749 503.5 C 588.724 504.6 588.249 505.388 588.693 505.25 C 589.137 505.113 589.5 505.563 589.5 506.25 C 589.5 506.938 588.977 507.401 588.338 507.279 C 586.951 507.016 584.747 512.782 585.666 514.269 C 586.024 514.848 585.829 515.012 585.227 514.64 C 584.279 514.055 582.949 516.393 582.462 519.5 C 582.375 520.05 582.222 520.275 582.121 520 C 581.557 518.468 579.303 523.443 579.763 525.203 C 580.093 526.464 579.916 527.066 579.322 526.699 C 578.776 526.362 577.58 527.657 576.665 529.577 C 574.671 533.758 574.608 534.339 576.25 533.412 C 576.938 533.024 576.503 533.675 575.284 534.86 C 573.909 536.197 573.31 537.643 573.704 538.671 C 574.104 539.715 573.943 540.083 573.267 539.665 C 572.652 539.285 571.749 540.28 571.149 542.001 C 570.574 543.651 570.418 545.007 570.802 545.015 C 571.186 545.024 571.018 545.361 570.428 545.765 C 568.359 547.184 560.411 568.952 560.904 571.85 C 561.03 572.593 560.751 572.964 560.283 572.675 C 559.487 572.183 556.485 581.268 550.43 602.5 C 549.018 607.45 547.753 612.419 547.619 613.542 C 547.485 614.666 547.084 616.055 546.729 616.629 C 546.374 617.204 545.633 619.435 545.083 621.587 C 543.68 627.075 541.585 633.836 537.536 645.939 C 535.616 651.68 534.259 656.593 534.522 656.856 C 534.785 657.118 535.068 656.808 535.15 656.167 C 535.233 655.525 535.3 655.45 535.3 656 C 535.3 658.933 534.901 660.057 534.047 659.529 C 533.522 659.205 532.6 660.866 531.996 663.22 C 531.393 665.574 530.025 670.166 528.957 673.424 C 527.888 676.682 527.236 679.569 527.507 679.84 C 527.778 680.111 528.068 679.808 528.15 679.167 C 528.345 677.651 528.345 679.534 528.15 681.559 C 528.068 682.416 527.635 682.893 527.189 682.617 C 526.402 682.13 520.729 698.792 521.068 700.598 C 521.161 701.094 521.164 701.275 521.075 701 C 520.985 700.725 520.267 702.3 519.478 704.5 C 518.689 706.7 518.269 709.224 518.545 710.109 C 518.82 710.994 518.698 712.569 518.273 713.609 C 517.611 715.229 517.5 715.142 517.498 713 C 517.495 708.996 514.877 717.213 514.539 722.288 C 514.385 724.605 514.168 725.825 514.059 725 C 513.949 724.175 513.211 725.269 512.419 727.43 C 511.628 729.592 511.239 732.292 511.555 733.43 C 511.977 734.946 511.875 735.13 511.174 734.117 C 510.453 733.075 510.046 733.568 509.522 736.117 C 509.139 737.978 507.966 742.357 506.915 745.849 C 505.864 749.341 505.255 752.603 505.561 753.099 C 505.867 753.594 505.692 754 505.17 754 C 504.265 754 502.778 759.256 502.482 763.5 C 502.405 764.6 502.231 765.275 502.094 765 C 501.579 763.962 496.03 785.559 496.493 786.802 C 496.759 787.518 496.616 787.881 496.175 787.608 C 495.341 787.093 489.604 807.99 489.616 811.5 C 489.62 812.6 489.264 813.748 488.825 814.051 C 487.895 814.692 482.888 833.204 482.551 837.245 C 482.426 838.754 482.025 839.692 481.661 839.328 C 481.298 838.964 480.933 839.642 480.85 840.833 C 480.768 842.025 480.655 843.563 480.6 844.25 C 480.545 844.938 480.253 845.725 479.952 846 C 478.8 847.051 476.05 858.966 476.618 860.446 C 476.946 861.301 476.768 862 476.224 862 C 475.679 862 475.013 863.013 474.745 864.25 C 474.476 865.488 472.45 873.475 470.243 882 C 467.976 890.754 466.386 899.023 466.59 901 C 466.872 903.737 466.786 903.969 466.196 902.065 C 465.58 900.081 465.196 900.913 464.118 906.565 C 463.39 910.379 462.136 915.857 461.33 918.737 C 460.525 921.617 460.136 924.411 460.467 924.946 C 460.797 925.481 460.653 926.724 460.146 927.709 C 458.624 930.663 457.206 940.264 457.755 943.892 C 458.115 946.267 457.929 947.074 457.134 946.583 C 456.373 946.112 456 947.01 456 949.316 C 456 955.269 457.176 958.976 460.033 962.036 L 462.802 965 L 477.651 964.984 C 496.371 964.963 513.745 963.551 518.205 961.688 C 522.692 959.813 529.176 954.093 528.342 952.745 C 527.984 952.165 528.161 951.982 528.736 952.337 C 530.084 953.17 533.304 948.301 532.387 946.817 C 532.004 946.198 532.132 945.964 532.672 946.297 C 533.866 947.036 538.109 935.073 538.215 930.667 C 538.257 928.925 538.715 927.224 539.233 926.887 C 539.751 926.55 540.248 924.75 540.338 922.887 C 540.427 921.024 540.74 919.275 541.033 919 C 541.999 918.094 544.284 905.568 544.103 902.168 C 543.993 900.086 544.315 899.077 544.963 899.477 C 545.533 899.83 546 899.453 546 898.641 C 546 897.828 546.267 896.339 546.594 895.332 C 547.089 893.808 547.007 893.752 546.11 895 C 545.169 896.308 545.029 896.286 545.015 894.833 C 545.007 893.917 545.511 892.996 546.136 892.788 C 547.633 892.289 551.096 879.033 550.359 876.625 C 550.034 875.563 550.198 875.005 550.737 875.338 C 551.261 875.661 552.615 872.23 553.746 867.713 C 555.98 858.79 561.127 839.196 566.016 821 C 570.798 803.201 571.078 801.936 570.46 800.936 C 570.142 800.421 570.292 800 570.793 800 C 571.293 800 572.509 796.963 573.494 793.25 C 574.479 789.538 575.659 786.018 576.116 785.43 C 576.967 784.333 589.259 784.202 592 785.259 C 598.957 787.944 663.922 789.36 727 788.202 C 748.407 787.809 769.332 785.937 770.3 784.329 C 770.74 783.598 772.229 783 773.609 783 C 775.189 783 775.865 783.41 775.434 784.107 C 774.992 784.823 775.413 785.024 776.625 784.676 C 777.656 784.38 782.75 783.581 787.945 782.901 C 793.96 782.112 796.683 781.408 795.445 780.961 C 794.293 780.545 795.669 780.284 798.822 780.321 C 801.75 780.356 804.45 779.96 804.822 779.442 C 805.195 778.924 806.85 778.414 808.5 778.309 C 810.15 778.204 816.9 776.244 823.5 773.955 C 830.1 771.665 836.513 769.561 837.75 769.279 C 838.988 768.997 840 768.144 840 767.383 C 840 766.623 840.477 766 841.059 766 C 841.641 766 841.843 766.445 841.507 766.989 C 841.157 767.555 841.557 767.724 842.442 767.384 C 843.293 767.057 843.71 766.339 843.369 765.788 C 842.98 765.159 843.587 765.052 845 765.5 C 846.674 766.031 847.051 765.891 846.471 764.953 C 845.983 764.164 846.096 763.941 846.771 764.358 C 848.26 765.279 853.085 762.947 852.305 761.684 C 851.922 761.065 852.323 760.91 853.318 761.292 C 855.303 762.054 865.204 757.14 864.378 755.802 C 864.06 755.288 864.407 754.985 865.15 755.129 C 865.892 755.274 867.572 755.03 868.882 754.587 C 870.727 753.963 870.953 753.584 869.882 752.906 C 868.875 752.268 869.179 752.022 871 752 C 874.169 751.961 876.193 750.696 875.803 748.998 C 875.582 748.037 875.723 747.999 876.32 748.858 C 877.279 750.235 882.13 747.249 885.714 743.077 C 886.932 741.66 887.944 740.849 887.964 741.276 C 887.984 741.702 889.347 741.355 890.993 740.504 C 892.639 739.653 893.876 738.463 893.743 737.861 C 893.609 737.259 894.31 736.63 895.299 736.464 C 897.171 736.15 901.362 733.178 906.5 728.52 C 915.341 720.504 921 714.747 921 713.769 C 921 713.163 921.269 712.936 921.598 713.265 C 922.909 714.576 945.508 686.631 944.481 684.969 C 944.151 684.436 944.475 684 945.2 684 C 946.822 684 949.52 679.995 949.142 678.15 C 948.991 677.407 949.279 677.054 949.782 677.366 C 950.286 677.677 951.317 676.71 952.073 675.216 C 952.829 673.722 954.241 671.435 955.21 670.132 C 956.18 668.83 956.727 667.368 956.427 666.882 C 956.127 666.397 956.308 666 956.83 666 C 957.351 666 959.65 662.4 961.939 658 C 964.228 653.6 965.767 650 965.359 650 C 964.952 650 965.304 649.438 966.143 648.75 C 967.944 647.273 975.614 629.064 975.199 627.25 C 975.041 626.563 975.31 626 975.796 626 C 976.282 626 977.26 624.088 977.969 621.75 C 978.679 619.413 979.866 615.7 980.608 613.5 C 983.378 605.286 985.895 593.89 985.288 592.308 C 984.904 591.307 985.064 590.922 985.701 591.315 C 986.323 591.7 986.965 590.456 987.296 588.229 C 987.601 586.178 988.615 580.45 989.55 575.5 C 990.485 570.55 991.327 561.767 991.422 555.983 C 991.516 550.199 991.965 544.866 992.418 544.133 C 992.871 543.399 992.916 538.682 992.516 533.65 C 992.117 528.617 991.647 521.251 991.471 517.281 C 990.986 506.309 989.883 498.954 988.822 499.61 C 988.244 499.967 988.137 498.788 988.548 496.598 C 989.022 494.067 988.861 493 988.004 493 C 987.334 493 987.042 492.332 987.356 491.515 C 988.209 489.292 982.876 469.412 979.911 463.764 C 979.41 462.809 978.984 461.234 978.965 460.264 C 978.929 458.486 976.248 453.07 975.864 454 C 975.751 454.275 975.573 453.825 975.47 453 C 975.1 450.045 972.35 444.982 971.524 445.733 C 971.061 446.155 970.945 445.762 971.267 444.86 C 971.589 443.958 971.099 442.365 970.177 441.321 C 969.254 440.276 968.359 438.764 968.186 437.961 C 968.014 437.157 966.853 434.925 965.606 433 C 964.359 431.075 962.121 427.571 960.632 425.214 C 959.143 422.857 957.491 421.196 956.962 421.523 C 956.433 421.85 956 420.966 956 419.559 C 956 418.152 955.438 416.988 954.75 416.974 C 954.063 416.96 952.051 414.81 950.28 412.197 C 948.508 409.584 944.683 405.198 941.78 402.451 C 929.517 390.849 905.514 374.973 901.613 375.884 C 901.125 375.998 899.775 375.244 898.613 374.209 C 897.451 373.174 893.575 371.326 890 370.103 C 886.425 368.88 882.6 367.473 881.5 366.976 C 879.33 365.997 868.735 363.058 865.5 362.538 C 864.4 362.361 861.025 361.51 858 360.646 C 847.469 357.64 820.319 355.352 810 356.603 M 828.23 438.35 C 831.931 439.277 836.354 440.197 838.058 440.395 C 839.762 440.593 841.661 441.261 842.278 441.878 C 842.895 442.495 844.05 443 844.845 443 C 847.561 443 860.776 449.965 866.142 454.225 C 869.089 456.564 871.838 458.539 872.25 458.614 C 872.663 458.689 872.8 458.806 872.556 458.875 C 872.312 458.944 873.457 460.463 875.099 462.25 C 876.741 464.038 879.463 467.638 881.147 470.25 C 882.831 472.863 884.612 475 885.104 475 C 885.597 475 885.896 475.338 885.769 475.75 C 885.642 476.163 887.408 479.875 889.694 484 C 891.979 488.125 894.177 492.82 894.579 494.433 C 894.98 496.047 895.912 498.522 896.648 499.933 C 897.385 501.345 897.99 503.069 897.994 503.764 C 897.997 504.459 898.421 505.809 898.935 506.764 C 901.348 511.245 903.287 531.18 902.683 545.31 C 902.094 559.094 899.916 575.46 897.999 580.502 C 897.48 581.866 897.317 583.662 897.635 584.491 C 897.953 585.321 897.766 586 897.218 586 C 896.671 586 895.925 587.587 895.561 589.526 C 895.197 591.466 893.806 596.402 892.47 600.496 C 891.133 604.59 890.298 608.741 890.614 609.72 C 891.096 611.214 891.015 611.259 890.11 610 C 888.986 608.438 889.026 608.339 888.59 613.826 C 888.532 614.555 888.151 614.817 887.742 614.409 C 887.334 614.001 887 614.304 886.999 615.083 C 886.999 615.862 885.668 619.313 884.042 622.75 C 882.415 626.188 881.308 629 881.581 629 C 881.854 629 881.16 629.985 880.039 631.189 C 878.918 632.392 878 633.912 878 634.566 C 878 635.22 877.371 636.277 876.603 636.914 C 875.835 637.552 875.424 638.906 875.69 639.924 C 875.956 640.942 875.69 642.073 875.099 642.439 C 874.412 642.863 874.248 642.451 874.646 641.302 C 875.189 639.732 875.073 639.752 873.746 641.458 C 872.908 642.535 872.474 644.071 872.781 644.872 C 873.093 645.685 872.904 646.059 872.353 645.718 C 871.811 645.383 870.546 646.547 869.542 648.304 C 868.538 650.062 866.595 652.713 865.225 654.194 C 863.854 655.676 862.68 657.82 862.616 658.957 C 862.552 660.095 862.163 661.02 861.75 661.013 C 861.338 661.006 860.592 661 860.094 661 C 859.595 661 859.423 661.9 859.71 663 C 860.014 664.162 859.741 665 859.058 665 C 858.373 665 858.204 664.479 858.652 663.753 C 859.076 663.068 854.94 667.096 849.461 672.706 C 839.425 682.981 833.699 687.448 822.563 693.687 C 811.258 700.021 795.949 706.743 788.757 708.531 C 787.226 708.912 786.297 709.672 786.656 710.252 C 787.064 710.913 786.321 711.103 784.607 710.776 C 783.128 710.493 779.031 710.867 775.502 711.606 C 763.376 714.148 729.853 714.99 684.5 713.893 C 660.85 713.32 631.696 713.096 619.713 713.393 C 607.729 713.691 596.554 713.661 594.878 713.326 C 591.993 712.749 591.866 712.524 592.486 709.108 C 592.847 707.124 594.492 701.122 596.142 695.77 C 597.793 690.419 598.859 685.581 598.512 685.02 C 598.166 684.459 598.285 684 598.777 684 C 600.028 684 603.139 670.588 602.409 668.341 C 601.972 666.995 602.068 666.858 602.764 667.83 C 604.009 669.567 605.939 662.322 605.297 658.323 C 604.965 656.254 605.108 655.879 605.835 656.919 C 606.575 657.977 607.01 657.114 607.549 653.522 C 607.946 650.873 608.882 647.535 609.629 646.103 C 610.376 644.671 610.99 642.981 610.994 642.346 C 610.997 641.711 612.111 637.908 613.469 633.895 C 614.947 629.526 615.691 625.616 615.323 624.15 C 614.934 622.6 615.084 621.934 615.732 622.335 C 616.731 622.951 618.449 617.786 618.09 615.25 C 617.992 614.563 618.333 614 618.848 614 C 619.898 614 621.288 609.793 621.491 606 C 621.565 604.625 621.726 604.175 621.849 605 C 621.972 605.825 622.944 604.076 624.01 601.112 C 625.076 598.149 625.665 595.267 625.319 594.708 C 624.96 594.127 625.186 593.997 625.845 594.405 C 626.51 594.815 627 594.519 627 593.708 C 627 592.932 628.125 590.182 629.5 587.596 C 630.875 585.01 632 582.289 632 581.55 C 632 580.81 633.347 577.489 634.994 574.17 C 636.795 570.541 637.724 567.444 637.325 566.403 C 636.929 565.373 637.06 564.919 637.648 565.282 C 638.786 565.986 644.315 555.319 643.498 553.997 C 643.2 553.514 643.787 552.305 644.803 551.31 C 647.468 548.698 651.154 541.057 650.364 539.78 C 649.985 539.166 650.151 538.975 650.743 539.341 C 651.327 539.702 652.637 538.324 653.686 536.246 C 654.725 534.186 656.798 530.593 658.292 528.263 C 659.786 525.933 660.953 523.683 660.886 523.263 C 660.818 522.843 660.816 522.713 660.882 522.973 C 660.947 523.232 661.701 522.444 662.558 521.221 C 663.415 519.997 663.795 518.478 663.403 517.844 C 662.988 517.171 663.128 516.961 663.741 517.34 C 664.318 517.697 665.046 517.323 665.358 516.51 C 666.121 514.52 678.716 497.341 682.486 493.147 C 684.144 491.303 685.561 489.278 685.635 488.647 C 685.709 488.016 685.821 487.691 685.885 487.924 C 685.948 488.158 687.111 487.305 688.469 486.029 C 689.827 484.753 690.658 483.255 690.315 482.7 C 689.972 482.145 690.125 481.959 690.654 482.286 C 691.184 482.614 692.941 481.469 694.559 479.743 C 696.177 478.016 696.938 476.944 696.25 477.361 C 695.551 477.784 695 477.637 695 477.028 C 695 476.428 695.788 475.658 696.75 475.316 C 699.778 474.241 708 467.648 708 466.295 C 708 465.583 708.338 465.053 708.75 465.118 C 710.584 465.408 712.273 464.94 711.648 464.314 C 711.271 463.937 711.854 463.493 712.944 463.326 C 714.034 463.16 717.98 461.137 721.713 458.832 C 725.446 456.526 731.875 453.151 736 451.332 C 740.125 449.513 742.825 447.973 742 447.911 C 741.175 447.848 742.157 447.645 744.181 447.46 C 746.206 447.274 749.221 446.42 750.882 445.561 C 752.542 444.703 754.837 444 755.982 444 C 757.126 444 758.322 443.325 758.638 442.5 C 758.955 441.675 759.642 441 760.166 441 C 760.69 441 760.866 441.408 760.558 441.907 C 760.249 442.405 760.893 442.579 761.987 442.293 C 763.082 442.007 763.725 441.364 763.417 440.865 C 763.108 440.366 764.126 440.051 765.678 440.165 C 770.05 440.486 784.163 437.721 782.74 436.823 C 782.058 436.392 790.5 436.18 801.5 436.353 C 816.036 436.58 823.339 437.126 828.23 438.35" stroke-linecap="round" />
</g>
		<g transform="matrix(1.33 0 0 1.33 -71.22 -11.22)"  >
<path style="stroke: rgb(89,133,167); stroke-width: 1; stroke-dasharray: none; stroke-linecap: butt; stroke-dashoffset: 0; stroke-linejoin: miter; stroke-miterlimit: 4; fill: rgb(89,133,167); fill-rule: nonzero; opacity: 1;" vector-effect="non-scaling-stroke"  transform=" translate(-694.21, -551.61)" d="M 792 169.634 C 769.99 171.505 747.612 174.455 751 175.04 C 751.825 175.182 749.575 175.403 746 175.532 C 731.3 176.059 680.37 188.883 682.722 191.464 C 683.15 191.934 682.752 192.051 681.837 191.724 C 680.412 191.215 673.535 193.109 666.5 195.949 C 643.603 205.192 631.653 210.762 634 211.098 C 634.825 211.216 634.375 211.402 633 211.512 C 627.294 211.965 597.315 229.163 600.209 230.324 C 600.919 230.609 600.482 230.878 599.239 230.921 C 595.156 231.064 579.032 242.799 558.216 260.777 C 548.396 269.258 546.826 270.909 547.515 272.025 C 547.839 272.549 547.497 272.744 546.754 272.459 C 545.94 272.147 541.061 276.57 534.452 283.613 C 528.429 290.032 523.014 295.786 522.42 296.401 C 521.825 297.015 521.546 298.139 521.799 298.898 C 522.053 299.659 521.803 299.996 521.241 299.649 C 519.978 298.868 514.4 305.998 514.824 307.85 C 514.995 308.593 514.683 308.922 514.132 308.582 C 512.994 307.878 508.015 313.97 507.495 316.701 C 507.307 317.69 507.119 318.093 507.077 317.595 C 506.953 316.131 503 320.17 503 321.761 C 503 322.559 501.875 324.097 500.5 325.179 C 499.125 326.26 498 327.732 498 328.45 C 498 329.168 497.305 330.332 496.454 331.038 C 495.604 331.743 495.138 332.918 495.419 333.648 C 495.699 334.379 495.452 334.869 494.871 334.738 C 494.29 334.607 493.293 335.366 492.657 336.424 C 492.021 337.483 489.398 341.702 486.83 345.8 C 484.117 350.129 482.407 353.897 482.75 354.79 C 483.125 355.767 482.932 356.076 482.22 355.636 C 481.157 354.979 478.824 358.029 479.105 359.709 C 479.177 360.144 479.115 360.95 478.966 361.5 C 478.817 362.05 478.644 361.825 478.581 361 C 478.518 360.175 477.281 361.862 475.832 364.748 C 474.383 367.634 473.716 369.738 474.349 369.424 C 474.982 369.109 474.667 369.53 473.65 370.359 C 472.572 371.238 472.115 372.376 472.554 373.088 C 473.008 373.821 472.893 374.052 472.267 373.665 C 470.976 372.867 465.697 383.701 466.636 385.22 C 467.006 385.819 466.855 386.029 466.301 385.686 C 465.048 384.912 462.728 389.75 463.642 391.229 C 464.023 391.846 463.845 392.022 463.227 391.64 C 462.184 390.996 460.689 393.855 460.423 397 C 460.353 397.825 460.227 398.05 460.142 397.5 C 460.057 396.95 459.335 397.751 458.537 399.281 C 457.739 400.81 457.369 402.797 457.713 403.695 C 458.103 404.711 457.938 405.08 457.277 404.671 C 456.181 403.994 454.488 408.404 454.904 410.85 C 455.03 411.593 454.71 411.939 454.192 411.619 C 453.355 411.102 451.774 414.436 445.002 431 C 443.99 433.475 440.61 441.575 437.492 449 C 434.374 456.425 431.721 463.175 431.596 464 C 431.471 464.825 429.936 468.58 428.184 472.345 C 426.432 476.109 425.227 479.558 425.506 480.009 C 425.784 480.46 425.614 480.98 425.128 481.165 C 424.641 481.349 422.549 486 420.478 491.5 C 418.407 497 415.845 503.75 414.786 506.5 C 412.393 512.712 409.981 519.304 406.554 529 C 405.096 533.125 403.529 537.4 403.071 538.5 C 402.614 539.6 401.561 542.3 400.732 544.5 C 394.925 559.915 394.127 561.088 391.374 558.251 C 390.343 557.189 388.684 556.026 387.687 555.667 C 386.689 555.308 386.122 554.612 386.426 554.12 C 386.729 553.629 386.308 552.671 385.489 551.991 C 384.67 551.311 383.947 550.923 383.882 551.128 C 383.816 551.332 383.797 551.222 383.837 550.883 C 383.942 550.015 379.028 545.502 378.875 546.326 C 378.806 546.697 378.694 546.438 378.625 545.75 C 378.556 545.063 377.938 544.5 377.25 544.5 C 376.563 544.5 375.951 544.05 375.892 543.5 C 375.759 542.28 355.822 521.059 355.05 521.317 C 354.747 521.418 354.344 521.05 354.153 520.5 C 353.962 519.95 351.937 517.473 349.653 514.995 C 347.369 512.518 341.259 505.884 336.075 500.253 C 330.892 494.623 326.441 490.225 326.185 490.481 C 325.929 490.737 324.995 489.629 324.11 488.018 C 323.224 486.408 317.325 479.596 311 472.88 C 304.675 466.165 298.275 459.36 296.778 457.759 C 295.182 456.052 293.566 455.15 292.873 455.578 C 292.177 456.009 291.955 455.881 292.334 455.268 C 292.688 454.695 292.334 453.693 291.548 453.04 C 290.414 452.098 289.446 452.333 286.868 454.176 C 278.425 460.213 273.827 464.16 274.479 464.813 C 274.789 465.123 274.445 465.464 273.714 465.571 C 271.627 465.878 263.009 474.128 262.921 475.904 C 262.871 476.921 262.66 477.05 262.341 476.261 C 262.042 475.521 260.329 476.93 258.086 479.761 C 256.022 482.367 253.609 485.095 252.726 485.823 C 251.828 486.562 251.388 487.849 251.729 488.737 C 252.127 489.774 251.942 490.082 251.198 489.622 C 250.502 489.192 248.864 490.787 247.004 493.708 C 244.548 497.564 244.025 499.332 244.326 502.757 C 244.679 506.771 245.633 507.939 261.1 523.279 C 270.12 532.225 280.825 543.247 284.89 547.772 C 288.954 552.298 293.004 556.007 293.89 556.015 C 295.272 556.028 295.291 556.163 294.028 556.962 C 292.737 557.778 292.74 557.963 294.056 558.468 C 294.881 558.785 297.569 561.566 300.028 564.648 C 302.488 567.73 304.556 569.745 304.625 569.126 C 304.694 568.507 304.86 568.338 304.993 568.75 C 305.127 569.163 305.192 569.812 305.138 570.192 C 305.083 570.573 306.215 571.811 307.654 572.942 C 309.093 574.074 309.966 575 309.595 575 C 309.223 575 310.48 576.688 312.388 578.75 C 314.296 580.813 317.242 584.413 318.935 586.75 C 320.627 589.088 322.685 591 323.506 591 C 324.328 591 324.887 591.426 324.75 591.946 C 324.612 592.466 325.85 594.551 327.5 596.579 C 337.153 608.446 342.448 614.5 343.175 614.5 C 343.629 614.5 343.888 614.753 343.75 615.063 C 343.277 616.129 351.413 626 352.765 626 C 353.509 626 353.85 626.434 353.523 626.964 C 353.195 627.493 353.731 628.75 354.714 629.756 C 355.696 630.762 358.688 634.266 361.361 637.542 C 364.035 640.819 366.622 643.556 367.111 643.625 C 367.6 643.694 367.742 643.806 367.427 643.875 C 366.705 644.033 370.018 648.309 374.884 653.5 C 376.946 655.7 380.884 660.002 383.635 663.06 C 386.387 666.119 389.169 668.444 389.819 668.227 C 390.485 668.005 390.771 668.432 390.476 669.203 C 390.154 670.04 393.721 674.062 399.64 679.537 C 404.97 684.466 409.997 689.248 410.812 690.162 C 411.627 691.076 412.977 691.562 413.811 691.242 C 414.792 690.866 415.076 691.068 414.615 691.815 C 414.185 692.509 415.195 693.756 417.148 694.944 C 419.742 696.521 420.693 696.675 421.884 695.709 C 423.117 694.709 423.262 694.8 422.723 696.238 C 422.323 697.306 422.52 697.884 423.235 697.738 C 424.647 697.449 429.202 688.136 428.493 686.988 C 428.215 686.539 428.339 686.02 428.768 685.835 C 429.778 685.401 435.953 671.61 439.439 662 C 440.936 657.875 442.559 653.6 443.046 652.5 C 447.099 643.354 453.93 624.259 453.526 623.207 C 453.249 622.486 453.468 622.171 454.011 622.507 C 454.555 622.843 455.069 622.304 455.152 621.309 C 455.236 620.314 455.352 618.903 455.41 618.174 C 455.468 617.445 455.849 617.183 456.258 617.591 C 457.065 618.398 457.333 616.841 457.024 613.138 C 456.913 611.806 457.256 611.04 457.81 611.382 C 458.785 611.985 464.021 600.331 464.496 596.5 C 464.633 595.4 464.82 594.95 464.912 595.5 C 465.003 596.05 465.733 594.991 466.534 593.147 C 467.335 591.302 467.741 589.39 467.436 588.897 C 467.131 588.404 467.286 588 467.78 588 C 469.132 588 471.029 583.239 470.366 581.512 C 470.047 580.68 470.295 580 470.918 580 C 471.54 580 472.516 578.763 473.086 577.25 C 473.656 575.738 474.739 573.255 475.493 571.733 C 476.247 570.211 476.444 569.225 475.932 569.542 C 475.419 569.859 475 569.641 475 569.059 C 475 568.477 475.439 568 475.975 568 C 477.353 568 481.249 559.092 480.605 557.414 C 480.312 556.65 480.534 556.131 481.098 556.262 C 482.472 556.58 489.221 539.235 489.08 535.75 C 489.009 533.998 489.48 533 490.377 533 C 492.133 533 493.146 530.543 492.299 528.336 C 491.902 527.301 492.059 526.918 492.714 527.323 C 493.913 528.064 496.329 522.886 496.577 519.045 C 496.668 517.645 496.818 517.175 496.91 518 C 497.003 518.825 497.733 517.991 498.534 516.147 C 499.335 514.302 499.741 512.39 499.436 511.897 C 499.131 511.404 499.286 511 499.78 511 C 501.001 511 503.167 506.079 502.454 504.925 C 502.139 504.416 502.291 504 502.791 504 C 503.973 504 509.364 491.312 509.578 488.029 C 509.668 486.638 509.812 486.175 509.897 487 C 510.113 489.101 515.204 479.053 515.469 476 C 515.589 474.625 515.757 473.924 515.843 474.441 C 516.084 475.885 518.932 471.72 518.968 469.872 C 518.986 468.977 519.681 467.68 520.513 466.989 C 521.345 466.298 521.926 465.231 521.803 464.617 C 521.681 464.002 522.17 462.433 522.89 461.129 C 523.867 459.361 523.887 458.952 522.97 459.519 C 522.215 459.985 521.897 459.81 522.145 459.064 C 522.368 458.396 522.989 457.866 523.525 457.885 C 525.089 457.942 528.769 449.846 528.213 447.574 C 527.933 446.433 528.064 445.831 528.503 446.234 C 529.344 447.007 531.925 444.213 531.953 442.5 C 531.962 441.95 531.533 442.175 531 443 C 530.467 443.825 530.024 444.132 530.015 443.683 C 530.007 443.234 531.164 441.341 532.586 439.476 C 534.008 437.612 534.905 435.655 534.579 435.129 C 534.254 434.602 534.396 434.02 534.895 433.835 C 535.924 433.455 550.446 405.173 550.6 403.25 C 550.655 402.563 550.774 402.338 550.865 402.75 C 550.955 403.163 551.585 402.513 552.265 401.306 C 557.013 392.872 557.884 390.861 557.368 389.517 C 557.048 388.683 557.284 388 557.893 388 C 558.502 388 558.888 388.539 558.75 389.197 C 558.613 389.856 559.324 389.204 560.331 387.75 C 561.338 386.295 562.316 384.293 562.504 383.302 C 562.693 382.311 562.883 381.95 562.927 382.5 C 562.971 383.05 563.916 382.01 565.026 380.19 C 566.136 378.369 566.739 376.387 566.367 375.785 C 565.988 375.171 566.148 374.973 566.732 375.334 C 567.305 375.688 568.329 375.308 569.009 374.489 C 569.999 373.297 569.979 373 568.91 373 C 568.176 373 569.134 371.668 571.038 370.041 C 572.942 368.413 573.911 367.063 573.191 367.041 C 572.471 367.018 572.165 366.543 572.51 365.984 C 572.856 365.425 573.486 365.182 573.91 365.444 C 574.335 365.707 575.714 364.525 576.976 362.818 C 578.238 361.111 578.76 360.03 578.135 360.416 C 577.511 360.802 577 360.641 577 360.059 C 577 359.477 577.675 359 578.5 359 C 579.325 359 580.056 358.55 580.125 358 C 580.347 356.22 580.747 354.982 580.875 355.674 C 580.944 356.045 582.111 355.305 583.469 354.029 C 584.827 352.753 585.701 351.325 585.41 350.855 C 585.12 350.385 585.239 349.438 585.676 348.75 C 586.274 347.808 586.473 347.863 586.485 348.976 C 586.494 349.854 587.436 349.246 588.811 347.476 C 590.082 345.839 595.197 340.338 600.177 335.25 C 605.158 330.163 608.955 325.944 608.616 325.875 C 608.277 325.806 608.413 325.694 608.919 325.625 C 609.424 325.556 613.986 322.125 619.057 318 C 624.128 313.875 630.712 308.7 633.688 306.5 C 636.664 304.3 638.626 302.613 638.049 302.75 C 637.472 302.888 637 302.55 637 302 C 637 301.45 637.874 301 638.943 301 C 641.749 301 648.119 297.001 647.334 295.732 C 646.924 295.067 647.274 294.891 648.256 295.268 C 649.268 295.656 651.019 294.67 653.103 292.539 C 654.897 290.704 656.958 289.43 657.683 289.708 C 658.407 289.986 659 289.689 659 289.048 C 659 288.407 659.419 288.141 659.932 288.458 C 660.444 288.774 661.497 288.129 662.271 287.023 C 663.046 285.917 663.923 285.256 664.22 285.553 C 664.517 285.851 666.772 284.971 669.23 283.599 C 671.688 282.226 675.859 279.955 678.499 278.552 C 681.138 277.148 683.118 275.947 682.899 275.882 C 682.68 275.816 682.814 275.809 683.198 275.864 C 683.582 275.92 687.182 274.464 691.198 272.628 C 695.214 270.793 700.075 268.708 702 267.996 C 706.904 266.18 712.407 263.707 713 263.052 C 713.275 262.748 714.625 262.424 716 262.33 C 719.305 262.105 725.775 260.28 724.5 259.931 C 723.95 259.781 724.4 259.595 725.5 259.518 C 729.507 259.239 735 257.757 735 256.956 C 735 256.504 736.238 256.149 737.75 256.167 C 739.263 256.185 743.182 255.48 746.46 254.6 C 749.738 253.72 753.419 253 754.639 253 C 755.859 253 757.581 252.276 758.466 251.391 C 759.462 250.395 761.061 249.97 762.659 250.275 C 764.08 250.547 769.8 250.076 775.371 249.228 C 790.692 246.899 837.174 246.955 855.314 249.326 C 862.911 250.319 870.505 250.828 872.189 250.459 C 873.976 250.066 875.013 250.17 874.681 250.707 C 874.368 251.214 877.572 252.21 881.803 252.921 C 899.444 255.885 923.277 262.896 936.5 269.01 C 939.8 270.536 944.075 272.508 946 273.392 C 951.586 275.959 959.005 280.22 965.821 284.775 C 969.297 287.099 972.382 289 972.677 289 C 973.424 289 980.867 294.762 984.619 298.244 C 986.335 299.836 988.585 301.298 989.619 301.493 C 990.654 301.688 991.077 301.881 990.56 301.923 C 990.043 301.966 994.093 306.659 999.56 312.353 C 1009.806 323.025 1010.931 324.287 1014.75 329.385 C 1015.988 331.037 1017.056 332.076 1017.125 331.694 C 1017.194 331.312 1017.306 331.435 1017.375 331.968 C 1017.444 332.5 1018.253 333.814 1019.172 334.888 C 1020.092 335.963 1021.397 337.89 1022.072 339.171 C 1022.747 340.452 1023.617 341.725 1024.006 342 C 1024.783 342.55 1032.339 355.181 1035.671 361.5 C 1041.328 372.229 1050.262 397.405 1051.679 406.611 C 1052.009 408.75 1052.693 411.308 1053.199 412.296 C 1053.706 413.284 1054.524 416.434 1055.019 419.296 C 1055.513 422.158 1056.858 429.9 1058.007 436.5 C 1062.258 460.912 1062.695 490.608 1059.461 535.5 C 1056.794 572.525 1053.856 594.94 1048.385 620 C 1047.485 624.125 1046.692 628.775 1046.624 630.333 C 1046.556 631.892 1046.163 632.829 1045.75 632.417 C 1045.338 632.004 1044.995 632.529 1044.989 633.583 C 1044.979 635.395 1038.981 657.521 1037.495 661.23 C 1037.113 662.182 1036.694 664.657 1036.563 666.73 C 1036.432 668.804 1036.236 669.825 1036.126 669 C 1035.93 667.519 1032.551 676.328 1032.385 678.75 C 1032.338 679.438 1032.22 679.663 1032.123 679.25 C 1032.026 678.838 1030.606 681.643 1028.968 685.484 C 1027.329 689.325 1026.138 692.915 1026.321 693.462 C 1026.503 694.009 1025.846 695.322 1024.861 696.38 C 1023.875 697.438 1023.336 698.735 1023.663 699.263 C 1023.989 699.791 1023.809 700.511 1023.262 700.862 C 1021.811 701.794 1017.673 710.166 1017.509 712.5 C 1017.432 713.6 1017.283 714.05 1017.178 713.5 C 1017.073 712.95 1016.09 713.85 1014.994 715.5 C 1013.899 717.15 1013.212 719.063 1013.47 719.75 C 1013.727 720.438 1013.579 721 1013.142 721 C 1012.194 721 1000.886 739.568 1000.585 741.619 C 1000.47 742.402 1000.103 742.77 999.769 742.436 C 999.204 741.871 997.321 744.561 997.099 746.25 C 997.044 746.663 997 746.675 997 746.277 C 997 745.88 996.341 746.496 995.535 747.646 C 994.73 748.796 994.325 749.991 994.635 750.302 C 994.946 750.613 994.825 751.459 994.365 752.183 C 993.693 753.244 993.528 753.224 993.515 752.078 C 993.507 751.296 992.24 752.308 990.699 754.328 C 989.159 756.348 988.102 758 988.35 758 C 988.599 758 987.464 759.463 985.827 761.25 C 984.191 763.038 983.348 764.383 983.955 764.24 C 984.562 764.097 984.319 765.11 983.414 766.49 C 982.51 767.871 981.147 769 980.385 769 C 979.623 769 979 769.702 979 770.559 C 979 771.416 978.6 771.871 978.111 771.569 C 977.213 771.014 971.636 777.614 971.421 779.487 C 971.357 780.045 971.236 780.065 971.152 779.531 C 971.069 778.999 968.325 781.21 965.055 784.446 C 961.785 787.681 959.197 790.797 959.305 791.369 C 959.412 791.941 958.98 792.43 958.345 792.455 C 957.71 792.48 955.89 793.659 954.3 795.075 C 947.932 800.749 935.296 810.394 927.539 815.503 C 920.477 820.153 914.05 823.762 896.039 833.188 C 894.135 834.185 891.799 835 890.848 835 C 889.896 835 888.871 835.399 888.57 835.887 C 887.856 837.042 868.294 844.115 855.36 847.894 C 816.803 859.161 767.93 862.569 726 856.914 C 721.875 856.358 715.125 855.494 711 854.993 C 680.646 851.312 659.406 847.157 637 840.518 C 634.525 839.785 630.925 838.867 629 838.477 C 627.075 838.088 625.05 837.436 624.5 837.029 C 623.95 836.622 622.462 836.034 621.193 835.723 C 618.263 835.005 618.741 837.099 621.824 838.491 C 624.031 839.488 625.692 842.641 624.591 843.742 C 624.266 844.067 624 843.692 624 842.907 C 624 841.372 620.153 838.514 619.272 839.394 C 618.546 840.121 627.227 849.979 636.154 858.564 C 642.391 864.562 647.971 869.405 659.5 878.828 C 662.238 881.066 675.016 890.333 683.464 896.207 C 687.294 898.87 691.03 900.819 691.766 900.536 C 692.502 900.254 692.858 900.421 692.558 900.907 C 692.019 901.778 694.79 903.468 696.25 903.159 C 696.663 903.071 697 903.403 697 903.895 C 697 905.11 714.156 913.551 715.85 913.17 C 716.593 913.003 716.937 913.293 716.614 913.815 C 715.958 914.877 731.241 921.463 745.286 926.171 C 751.146 928.135 756.415 929.24 759.762 929.206 C 762.656 929.177 764.797 929.519 764.52 929.967 C 763.557 931.526 771.613 932.317 788.5 932.32 C 801.828 932.323 803.664 932.465 797 932.976 C 789.101 933.581 789.507 933.641 802.75 933.814 C 812.096 933.936 817 933.641 817 932.957 C 817 932.277 819.697 932.098 824.75 932.443 C 829.575 932.773 835.897 932.395 841.5 931.44 C 846.45 930.597 851.625 929.782 853 929.629 C 859.549 928.9 865 927.697 865 926.98 C 865 926.544 865.828 926.404 866.84 926.668 C 869.607 927.392 907.145 917.004 909.45 914.877 C 909.973 914.395 911.253 914 912.296 914 C 913.338 914 915.386 913.366 916.846 912.591 C 918.306 911.816 921.975 910.217 925 909.037 C 937.26 904.257 942 901.949 942 900.759 C 942 900.25 942.563 900.027 943.25 900.264 C 944.416 900.665 958.394 893.763 964 890.017 C 965.375 889.099 970.86 885.487 976.189 881.991 C 981.518 878.495 985.852 875.38 985.821 875.067 C 985.789 874.755 985.816 874.643 985.882 874.818 C 985.947 874.993 987.355 874.171 989.012 872.992 C 990.668 871.812 991.724 870.362 991.357 869.769 C 990.991 869.176 991.143 868.971 991.696 869.312 C 993.476 870.412 1010.387 856.435 1009.335 854.733 C 1008.981 854.16 1009.125 853.959 1009.656 854.288 C 1010.692 854.928 1019.417 847.677 1019.625 846.004 C 1019.694 845.452 1019.806 845.313 1019.875 845.696 C 1019.944 846.079 1021.557 844.883 1023.461 843.038 C 1025.365 841.193 1026.645 839.235 1026.307 838.687 C 1025.968 838.139 1026.147 837.973 1026.705 838.317 C 1027.262 838.662 1030.259 836.256 1033.364 832.972 C 1036.47 829.687 1038.697 827 1038.314 827 C 1037.931 827 1038.491 826.339 1039.559 825.532 C 1040.626 824.724 1041.163 823.993 1040.75 823.907 C 1040.338 823.821 1040.447 823.694 1040.994 823.625 C 1041.541 823.556 1044.002 821.025 1046.463 818 C 1048.925 814.975 1050.502 812.612 1049.969 812.75 C 1049.436 812.887 1049 812.55 1049 812 C 1049 811.45 1049.533 811 1050.186 811 C 1052.266 811 1055.89 806.877 1055.258 805.23 C 1054.88 804.244 1055.067 803.923 1055.768 804.357 C 1056.413 804.755 1058.219 803.089 1060.092 800.366 C 1061.861 797.795 1062.789 796.012 1062.154 796.405 C 1061.519 796.797 1061 796.748 1061 796.296 C 1061 795.844 1062.013 795.03 1063.25 794.487 C 1064.488 793.944 1065.561 792.825 1065.635 792 C 1065.709 791.175 1065.821 790.699 1065.885 790.941 C 1065.948 791.184 1066.613 790.544 1067.362 789.52 C 1068.111 788.496 1068.524 786.897 1068.281 785.967 C 1067.991 784.856 1068.588 784.08 1070.02 783.705 C 1071.22 783.391 1071.934 782.701 1071.606 782.172 C 1071.279 781.643 1071.731 780.934 1072.609 780.596 C 1073.631 780.204 1073.971 779.366 1073.551 778.272 C 1073.19 777.331 1073.216 776.882 1073.608 777.275 C 1074.57 778.236 1079.259 771.229 1078.489 769.982 C 1078.155 769.442 1078.239 768.438 1078.676 767.75 C 1079.271 766.813 1079.474 766.875 1079.486 768 C 1079.506 769.76 1084.278 762.095 1084.311 760.25 C 1084.323 759.563 1084.654 759 1085.045 759 C 1085.874 759 1088.452 753.2 1088.602 751 C 1088.658 750.175 1088.788 749.95 1088.891 750.5 C 1088.994 751.05 1089.721 750.02 1090.507 748.211 C 1091.293 746.401 1091.507 745.187 1090.982 745.511 C 1090.38 745.883 1090.368 745.251 1090.95 743.801 C 1091.488 742.46 1091.916 742.126 1091.977 743 C 1092.036 743.867 1092.715 743.33 1093.584 741.726 C 1094.412 740.201 1094.841 738.551 1094.537 738.06 C 1094.234 737.569 1094.513 735.893 1095.158 734.334 C 1095.803 732.775 1096.413 732.175 1096.513 733 C 1096.613 733.825 1096.817 734.05 1096.966 733.5 C 1097.115 732.95 1097.179 732.149 1097.108 731.719 C 1097.037 731.29 1097.906 729.944 1099.038 728.729 C 1100.462 727.2 1100.918 725.747 1100.518 724.01 C 1100.174 722.52 1100.278 722.004 1100.772 722.74 C 1101.345 723.592 1101.99 722.918 1102.834 720.583 C 1103.509 718.715 1103.995 716.807 1103.913 716.343 C 1103.83 715.879 1103.823 714.6 1103.897 713.5 C 1103.998 711.994 1104.241 711.832 1104.883 712.845 C 1105.508 713.831 1105.947 713.43 1106.527 711.345 C 1106.962 709.78 1107.21 707.663 1107.078 706.641 C 1106.941 705.58 1107.279 705.054 1107.865 705.416 C 1109.132 706.2 1111.117 699.469 1110.27 697.261 C 1109.886 696.262 1110.064 695.922 1110.749 696.345 C 1111.853 697.027 1112.263 696.011 1115.521 684.5 C 1116.455 681.2 1117.826 676.475 1118.569 674 C 1122.296 661.568 1126.32 644.106 1126.174 641 C 1126.078 638.959 1126.34 638.014 1126.802 638.732 C 1127.287 639.485 1128.107 637.542 1128.911 633.732 C 1129.635 630.304 1130.817 625.25 1131.537 622.5 C 1132.258 619.75 1133.149 614.829 1133.519 611.565 C 1133.888 608.301 1134.542 604.701 1134.971 603.565 C 1135.401 602.429 1136.021 598.575 1136.35 595 C 1136.678 591.425 1137.436 585.889 1138.034 582.697 C 1138.632 579.506 1139.257 573.881 1139.424 570.197 C 1139.591 566.514 1139.981 562.825 1140.291 562 C 1141.275 559.382 1143.248 537.21 1142.592 536.148 C 1142.246 535.588 1142.45 532.963 1143.047 530.315 C 1144.591 523.459 1144.533 458.145 1142.978 453.434 C 1142.331 451.473 1142.037 448.966 1142.326 447.863 C 1143.048 445.102 1140.803 428 1139.718 428 C 1139.236 428 1139.103 426.763 1139.422 425.25 C 1139.742 423.738 1139.592 420.25 1139.088 417.5 C 1138.585 414.75 1137.661 409.575 1137.035 406 C 1135.198 395.516 1129.024 370.852 1127.356 367.337 C 1126.511 365.557 1126.062 363.708 1126.359 363.229 C 1126.655 362.749 1126.341 361.264 1125.662 359.928 C 1124.982 358.593 1123.878 355.641 1123.208 353.369 C 1122.539 351.096 1121.323 348.683 1120.506 348.005 C 1119.69 347.328 1119.25 346.405 1119.528 345.955 C 1120.42 344.512 1112.095 326.823 1110.878 327.576 C 1110.462 327.833 1110.183 327.219 1110.259 326.212 C 1110.454 323.629 1094.457 295.204 1093.885 297.115 C 1093.821 297.327 1093.683 297.05 1093.577 296.5 C 1093.091 293.961 1091.694 292.071 1090.741 292.66 C 1090.121 293.043 1089.989 292.827 1090.417 292.134 C 1090.824 291.476 1090.013 289.615 1088.572 287.903 C 1087.157 286.222 1085.966 285.219 1085.923 285.673 C 1085.881 286.128 1085.686 285.646 1085.49 284.603 C 1085.08 282.418 1082.085 279.092 1081.829 280.536 C 1081.735 281.066 1081.606 280.812 1081.543 279.97 C 1081.436 278.557 1074.148 268.221 1073.882 269.106 C 1073.816 269.323 1073.82 269.153 1073.889 268.729 C 1073.958 268.305 1068.498 262.277 1061.757 255.333 C 1049.246 242.447 1035.861 231 1033.305 231 C 1032.522 231 1032.107 230.636 1032.382 230.191 C 1032.812 229.496 1011.009 214 1009.601 214 C 1009.319 214 1007.434 212.877 1005.411 211.504 C 1001.043 208.54 977.931 197.296 967.5 193.061 C 966.4 192.614 964.15 191.686 962.5 190.997 C 955.787 188.197 935.645 182.101 934.809 182.618 C 934.316 182.923 933.279 182.646 932.504 182.003 C 931.712 181.346 930.145 181.137 928.923 181.525 C 927.566 181.955 926.983 181.837 927.371 181.209 C 928.143 179.959 916.684 177.923 912.5 178.566 C 910.314 178.902 910.017 178.802 911.405 178.196 C 913.151 177.435 892.466 173.816 878.092 172.368 C 875.567 172.114 869.225 171.448 864 170.888 C 854.44 169.863 800.382 168.922 792 169.634" stroke-linecap="round" />
</g>
		<g transform="matrix(1.33 0 0 1.33 0.81 21.21)"  >
<path style="stroke: rgb(254,254,254); stroke-width: 1; stroke-dasharray: none; stroke-linecap: butt; stroke-dashoffset: 0; stroke-linejoin: miter; stroke-miterlimit: 4; fill: rgb(254,254,254); fill-rule: nonzero; opacity: 1;" vector-effect="non-scaling-stroke"  transform=" translate(-747.49, -575.33)" d="M 782.74 436.823 C 784.163 437.721 770.05 440.486 765.678 440.165 C 764.126 440.051 763.108 440.366 763.417 440.865 C 763.725 441.364 763.082 442.007 761.987 442.293 C 760.893 442.579 760.249 442.405 760.558 441.907 C 760.866 441.408 760.69 441 760.166 441 C 759.642 441 758.955 441.675 758.638 442.5 C 758.322 443.325 757.126 444 755.982 444 C 754.837 444 752.542 444.703 750.882 445.561 C 749.221 446.42 746.206 447.274 744.181 447.46 C 742.157 447.645 741.175 447.848 742 447.911 C 742.825 447.973 740.125 449.513 736 451.332 C 731.875 453.151 725.446 456.526 721.713 458.832 C 717.98 461.137 714.034 463.16 712.944 463.326 C 711.854 463.493 711.271 463.937 711.648 464.314 C 712.273 464.94 710.584 465.408 708.75 465.118 C 708.338 465.053 708 465.583 708 466.295 C 708 467.648 699.778 474.241 696.75 475.316 C 695.788 475.658 695 476.428 695 477.028 C 695 477.637 695.551 477.784 696.25 477.361 C 696.938 476.944 696.177 478.016 694.559 479.743 C 692.941 481.469 691.184 482.614 690.654 482.286 C 690.125 481.959 689.972 482.145 690.315 482.7 C 690.658 483.255 689.827 484.753 688.469 486.029 C 687.111 487.305 685.948 488.158 685.885 487.924 C 685.821 487.691 685.709 488.016 685.635 488.647 C 685.561 489.278 684.144 491.303 682.486 493.147 C 678.716 497.341 666.121 514.52 665.358 516.51 C 665.046 517.323 664.318 517.697 663.741 517.34 C 663.128 516.961 662.988 517.171 663.403 517.844 C 663.795 518.478 663.415 519.997 662.558 521.221 C 661.701 522.444 660.947 523.232 660.882 522.973 C 660.816 522.713 660.818 522.843 660.886 523.263 C 660.953 523.683 659.786 525.933 658.292 528.263 C 656.798 530.593 654.725 534.186 653.686 536.246 C 652.637 538.324 651.327 539.702 650.743 539.341 C 650.151 538.975 649.985 539.166 650.364 539.78 C 651.154 541.057 647.468 548.698 644.803 551.31 C 643.787 552.305 643.2 553.514 643.498 553.997 C 644.315 555.319 638.786 565.986 637.648 565.282 C 637.06 564.919 636.929 565.373 637.325 566.403 C 637.724 567.444 636.795 570.541 634.994 574.17 C 633.347 577.489 632 580.81 632 581.55 C 632 582.289 630.875 585.01 629.5 587.596 C 628.125 590.182 627 592.932 627 593.708 C 627 594.519 626.51 594.815 625.845 594.405 C 625.186 593.997 624.96 594.127 625.319 594.708 C 625.665 595.267 625.076 598.149 624.01 601.112 C 622.944 604.076 621.972 605.825 621.849 605 C 621.726 604.175 621.565 604.625 621.491 606 C 621.288 609.793 619.898 614 618.848 614 C 618.333 614 617.992 614.563 618.09 615.25 C 618.449 617.786 616.731 622.951 615.732 622.335 C 615.084 621.934 614.934 622.6 615.323 624.15 C 615.691 625.616 614.947 629.526 613.469 633.895 C 612.111 637.908 610.997 641.711 610.994 642.346 C 610.99 642.981 610.376 644.671 609.629 646.103 C 608.882 647.535 607.946 650.873 607.549 653.522 C 607.01 657.114 606.575 657.977 605.835 656.919 C 605.108 655.879 604.965 656.254 605.297 658.323 C 605.939 662.322 604.009 669.567 602.764 667.83 C 602.068 666.858 601.972 666.995 602.409 668.341 C 603.139 670.588 600.028 684 598.777 684 C 598.285 684 598.166 684.459 598.512 685.02 C 598.859 685.581 597.793 690.419 596.142 695.77 C 594.492 701.122 592.847 707.124 592.486 709.108 C 591.866 712.524 591.993 712.749 594.878 713.326 C 596.554 713.661 607.729 713.691 619.713 713.393 C 631.696 713.096 660.85 713.32 684.5 713.893 C 729.853 714.99 763.376 714.148 775.502 711.606 C 779.031 710.867 783.128 710.493 784.607 710.776 C 786.321 711.103 787.064 710.913 786.656 710.252 C 786.297 709.672 787.226 708.912 788.757 708.531 C 795.949 706.743 811.258 700.021 822.563 693.687 C 833.699 687.448 839.425 682.981 849.461 672.706 C 854.94 667.096 859.076 663.068 858.652 663.753 C 858.204 664.479 858.373 665 859.058 665 C 859.741 665 860.014 664.162 859.71 663 C 859.423 661.9 859.595 661 860.094 661 C 860.592 661 861.338 661.006 861.75 661.013 C 862.163 661.02 862.552 660.095 862.616 658.957 C 862.68 657.82 863.854 655.676 865.225 654.194 C 866.595 652.713 868.538 650.062 869.542 648.304 C 870.546 646.547 871.811 645.383 872.353 645.718 C 872.904 646.059 873.093 645.685 872.781 644.872 C 872.474 644.071 872.908 642.535 873.746 641.458 C 875.073 639.752 875.189 639.732 874.646 641.302 C 874.248 642.451 874.412 642.863 875.099 642.439 C 875.69 642.073 875.956 640.942 875.69 639.924 C 875.424 638.906 875.835 637.552 876.603 636.914 C 877.371 636.277 878 635.22 878 634.566 C 878 633.912 878.918 632.392 880.039 631.189 C 881.16 629.985 881.854 629 881.581 629 C 881.308 629 882.415 626.188 884.042 622.75 C 885.668 619.313 886.999 615.862 886.999 615.083 C 887 614.304 887.334 614.001 887.742 614.409 C 888.151 614.817 888.532 614.555 888.59 613.826 C 889.026 608.339 888.986 608.438 890.11 610 C 891.015 611.259 891.096 611.214 890.614 609.72 C 890.298 608.741 891.133 604.59 892.47 600.496 C 893.806 596.402 895.197 591.466 895.561 589.526 C 895.925 587.587 896.671 586 897.218 586 C 897.766 586 897.953 585.321 897.635 584.491 C 897.317 583.662 897.48 581.866 897.999 580.502 C 899.916 575.46 902.094 559.094 902.683 545.31 C 903.287 531.18 901.348 511.245 898.935 506.764 C 898.421 505.809 897.997 504.459 897.994 503.764 C 897.99 503.069 897.385 501.345 896.648 499.933 C 895.912 498.522 894.98 496.047 894.579 494.433 C 894.177 492.82 891.979 488.125 889.694 484 C 887.408 479.875 885.642 476.163 885.769 475.75 C 885.896 475.338 885.597 475 885.104 475 C 884.612 475 882.831 472.863 881.147 470.25 C 879.463 467.638 876.741 464.038 875.099 462.25 C 873.457 460.463 872.312 458.944 872.556 458.875 C 872.8 458.806 872.663 458.689 872.25 458.614 C 871.838 458.539 869.089 456.564 866.142 454.225 C 860.776 449.965 847.561 443 844.845 443 C 844.05 443 842.895 442.495 842.278 441.878 C 841.661 441.261 839.762 440.593 838.058 440.395 C 836.354 440.197 831.931 439.277 828.23 438.35 C 823.339 437.126 816.036 436.58 801.5 436.353 C 790.5 436.18 782.058 436.392 782.74 436.823" stroke-linecap="round" />
</g>
</g>
</g>
</svg>